<svg version="1.1" xmlns="http://www.w3.org/2000/svg" style="display: block;" viewBox="0 0 4000 4000" width="4000" height="4000" preserveAspectRatio="none">
<path transform="translate(0,0)" fill="rgb(234,205,37)" d="M 1969.63 53.3719 C 3044.7 36.5989 3929.83 894.512 3946.62 1969.59 C 3963.41 3044.66 3105.51 3929.8 2030.44 3946.61 C 955.337 3963.42 70.1733 3105.5 53.381 2030.4 C 36.5887 955.294 894.527 70.1454 1969.63 53.3719 z"/>
<path transform="translate(0,0)" fill="rgb(4,79,58)" d="M 1999.99 1346.76 C 2046.99 1266.54 2099.36 1225.15 2194.7 1226.62 C 2330.15 1229.27 2458.86 1286.18 2551.98 1384.58 C 2665.37 1502.08 2725.28 1675.99 2719.84 1837.89 C 2708.65 2170.96 2404.51 2507.7 2179.44 2723.42 C 2121.75 2777.99 2061.9 2830.22 2000.03 2880 C 1974.79 2859.88 1949.95 2839.26 1925.54 2818.15 C 1672.05 2599.2 1308.94 2218.77 1281.34 1863.24 C 1269.19 1706.67 1324.38 1520.25 1430.24 1403.91 C 1529.05 1295.32 1641.55 1237.03 1787.77 1227.38 C 1894.27 1222.36 1945.55 1256.31 1999.99 1346.76 z"/>
<path transform="translate(0,0)" fill="rgb(254,254,254)" d="M 1867.62 1494.4 C 1887.81 1492.3 1928.54 1493.45 1950.33 1493.5 C 1999.77 1493.9 2049.22 1493.76 2098.65 1493.08 C 2182.23 1492.21 2173.98 1537.41 2173.82 1604.68 L 2173.47 1720.09 L 2290.28 1719.76 C 2336.19 1719.67 2399.54 1711.23 2400.03 1777.14 C 2400.61 1855.95 2400.62 1934.86 2399.63 2013.66 C 2400.36 2030.05 2388.93 2052.32 2373.4 2059.42 C 2350.76 2069.78 2312.96 2066.82 2288.23 2066.78 L 2173.48 2066.54 C 2173.53 2103.32 2178.51 2236.1 2168.87 2260.73 C 2162.2 2277.78 2148.61 2285.8 2132.53 2292.4 C 2066.5 2297.85 1991.82 2289.72 1924.95 2293.21 C 1899.1 2294.56 1862.96 2297.43 1843.31 2278.45 C 1835.64 2271.12 1830.41 2261.6 1828.35 2251.2 C 1825.06 2235 1826.32 2199.1 1826.35 2181.14 L 1826.53 2066.54 L 1711.99 2066.71 C 1662.1 2066.77 1599.91 2077.29 1600.01 2005.77 C 1600.07 1954.05 1598.89 1901.22 1599.71 1849.57 C 1600.08 1826.65 1597.19 1783.28 1601.54 1762.16 C 1603.67 1751.94 1608.73 1742.57 1616.1 1735.18 C 1636.53 1714.94 1683.57 1719.79 1711.23 1719.84 L 1826.52 1720.08 C 1826.45 1682.17 1820.68 1547.99 1832.46 1522.72 C 1839.55 1507.51 1852.62 1500.23 1867.62 1494.4 z"/>
</svg>