<svg version="1.1" xmlns="http://www.w3.org/2000/svg" style="display: block;" viewBox="0 0 4000 4000" width="4000" height="4000" preserveAspectRatio="none">
<path transform="translate(0,0)" fill="rgb(234,205,37)" d="M 1969.56 53.3729 C 3044.64 36.5645 3929.79 894.453 3946.62 1969.53 C 3963.44 3044.61 3105.56 3929.77 2030.48 3946.61 C 955.388 3963.44 70.2048 3105.55 53.3819 2030.45 C 36.559 955.354 894.467 70.1817 1969.56 53.3729 z"/>
<path transform="translate(0,0)" fill="rgb(4,79,58)" d="M 1664.05 1086.74 C 1831.68 1073.6 1914.81 1130.75 2000.4 1270.18 C 2079.51 1141.13 2153.57 1081.97 2309.39 1085.57 C 2517.24 1091.78 2714.01 1180.75 2855.96 1332.72 C 3030.87 1516.67 3120.48 1783.28 3111.29 2033.8 C 3092.83 2536.71 2629.56 3061.42 2279.14 3393.55 C 2189.66 3478.61 2096.63 3559.86 2000.32 3637.1 C 1972.85 3615.06 1945.65 3592.69 1918.72 3570.01 C 1510.31 3224.58 940.936 2627.44 891.95 2077.81 C 870.622 1838.51 952.602 1550.31 1113.01 1368.2 C 1263.78 1197.03 1437.54 1105.01 1664.05 1086.74 z"/>
<path transform="translate(0,0)" fill="rgb(254,254,254)" d="M 1811.14 1496.77 L 2153.09 1496.58 C 2187.51 1496.57 2218.46 1494.79 2244.55 1521.81 C 2276.76 1555.18 2268.08 1614.85 2268.06 1658.91 L 2267.89 1846.58 L 2451.62 1846.34 C 2529.46 1846.29 2617.24 1832 2617.78 1941.19 L 2617.89 2196.76 C 2617.87 2235.01 2619.39 2282.19 2615.23 2320.01 C 2611.7 2334.3 2602.69 2348.84 2592.19 2359.09 C 2560.26 2390.28 2494.65 2381.77 2452.58 2381.76 L 2267.89 2381.59 L 2267.93 2564.74 C 2268.01 2634.24 2283.56 2721.51 2188.57 2731.54 L 2186.97 2731.59 C 2075.82 2733.89 1961.41 2729.13 1850.58 2731.88 C 1718.47 2735.15 1732.65 2664.95 1732.67 2566.67 L 1732.84 2381.58 L 1554.14 2381.75 C 1507.66 2381.76 1441.14 2391.42 1407.26 2357.48 C 1386.73 2337.43 1383.05 2315.51 1383.01 2288.16 C 1382.82 2178.91 1382.81 2069.68 1382.95 1960.43 C 1382.95 1927.91 1380.66 1901.32 1403.48 1874.78 C 1435.8 1837.17 1503.19 1846.35 1549.11 1846.38 L 1732.84 1846.57 L 1732.69 1666.19 C 1732.58 1594.9 1716.61 1509.95 1811.14 1496.77 z"/>
<path transform="translate(0,0)" fill="rgb(4,79,58)" d="M 1988.76 387.694 C 2188.5 381.759 2355.26 538.794 2361.33 738.525 C 2367.4 938.256 2210.47 1105.12 2010.74 1111.32 C 1810.83 1117.53 1643.77 960.422 1637.7 760.505 C 1631.63 560.588 1788.84 393.635 1988.76 387.694 z"/>
<path transform="translate(0,0)" fill="rgb(226,20,7)" d="M 474.605 1795.57 C 486.883 1801.26 488.421 1831.95 492.495 1846.42 C 511.437 1912.16 562.213 1963.95 627.571 1984.18 C 639.199 1987.85 678.433 1991.65 680.694 2001.79 C 671.562 2012.43 629.614 2016.21 614.481 2023.08 C 524.838 2063.78 503.432 2118.2 482.296 2206.27 L 477.573 2206.18 C 474.927 2204.47 472.308 2202.94 471.502 2199.49 C 460.198 2151.19 452.861 2116.12 418.459 2077.26 C 399.632 2055.96 376.648 2038.75 350.92 2026.66 C 329.753 2016.74 283.231 2008.93 277.541 2001.54 C 279.951 1998.55 281.891 1996.32 286.022 1995.69 C 372.907 1982.37 441.537 1925.61 463.779 1839.31 C 467.111 1826.39 466.623 1807.19 474.605 1795.57 z"/>
<path transform="translate(0,0)" fill="rgb(226,20,7)" d="M 3521.52 1795.64 C 3533.97 1801.24 3534.3 1827.41 3537.99 1841.53 C 3556 1910.26 3608.57 1964.61 3676.67 1984.9 C 3687.54 1988.21 3726.05 1991.8 3727.85 2001.38 C 3718 2012.56 3677.49 2016.14 3661.66 2023.16 C 3570.56 2063.53 3551.21 2118.54 3529.09 2206.3 L 3524.45 2206.19 C 3521.68 2204.44 3519.34 2203.22 3518.38 2199.62 C 3509.9 2167.58 3505.07 2134.84 3486.91 2106.04 C 3460.35 2063.28 3419.33 2031.47 3371.31 2016.38 C 3359.94 2012.91 3330.17 2010.69 3324.62 2001.68 C 3329.12 1994.55 3347.98 1991.47 3356.2 1989.84 C 3433.4 1974.52 3493.14 1912.12 3511.37 1836.41 C 3514.58 1823.06 3513.36 1807.28 3521.52 1795.64 z"/>
</svg>