<svg version="1.1" xmlns="http://www.w3.org/2000/svg" style="display: block;" viewBox="0 0 4000 4000" width="4000" height="4000" preserveAspectRatio="none">
<path transform="translate(0,0)" fill="rgb(234,205,37)" d="M 1969.63 53.3719 C 3044.7 36.5989 3929.83 894.512 3946.62 1969.59 C 3963.41 3044.66 3105.51 3929.8 2030.44 3946.61 C 955.337 3963.42 70.1733 3105.5 53.381 2030.4 C 36.5887 955.294 894.527 70.1453 1969.63 53.3719 z"/>
<path transform="translate(0,0)" fill="rgb(4,79,58)" d="M 1663.61 1086.76 C 1832.28 1074.67 1913.83 1129.16 2000.41 1270.21 C 2079.74 1140.43 2154.4 1081.74 2310.61 1085.6 C 2517.89 1092.12 2714.04 1180.95 2855.68 1332.43 C 3030.69 1516.32 3120.59 1783.29 3111.29 2033.8 C 3092.56 2538.21 2628.5 3062.22 2277.43 3395.2 C 2188.47 3479.66 2096.02 3560.36 2000.32 3637.09 C 1974.09 3616.05 1948.1 3594.71 1922.35 3573.07 C 1512.92 3227.76 941.71 2628.84 892.061 2079.01 C 870.419 1839.34 952.296 1550.62 1113 1368.21 C 1263.93 1196.88 1437.07 1105.36 1663.61 1086.76 z"/>
<path transform="translate(0,0)" fill="rgb(254,254,254)" d="M 1810.87 1496.77 L 2143.4 1496.59 C 2154.88 1496.57 2166.45 1496.46 2177.92 1496.76 C 2281.56 1499.51 2268.07 1585.11 2268.03 1657.73 L 2267.88 1846.56 L 2451.61 1846.34 C 2529.46 1846.29 2617.23 1832 2617.78 1941.19 L 2617.89 2197.59 C 2617.87 2235.5 2619.4 2282.5 2615.22 2320 C 2611.69 2334.37 2602.72 2348.78 2592.18 2359.09 C 2560.29 2390.28 2494.6 2381.76 2452.58 2381.75 L 2267.88 2381.58 L 2267.95 2563.49 C 2268.01 2633.42 2283.94 2720.97 2188.81 2731.55 C 2076.13 2733.79 1960.59 2729.24 1848.2 2731.9 C 1717.24 2734.99 1732.65 2660.68 1732.68 2564.46 L 1732.85 2381.57 L 1547.85 2381.75 C 1521.12 2381.77 1494.14 2381.76 1467.66 2381.36 C 1417.4 2381.26 1382.8 2345.43 1383.14 2294.57 C 1383.98 2167.36 1380.13 2038.63 1385.09 1911.57 C 1387.64 1895.3 1401.47 1872.96 1414.95 1863.66 C 1449.84 1839.57 1509.77 1846.32 1550.61 1846.35 L 1732.84 1846.56 L 1732.66 1664.58 C 1732.64 1593.27 1716.92 1510.58 1810.87 1496.77 z"/>
<path transform="translate(0,0)" fill="rgb(4,79,58)" d="M 1988.79 387.695 C 2188.52 381.777 2355.27 538.817 2361.33 738.541 C 2367.39 938.266 2210.46 1105.12 2010.74 1111.32 C 1810.82 1117.53 1643.76 960.414 1637.7 760.49 C 1631.64 560.567 1788.87 393.618 1988.79 387.695 z"/>
</svg>