<svg version="1.1" id="Layer_1" xmlns="http://www.w3.org/2000/svg" xmlns:xlink="http://www.w3.org/1999/xlink" x="0px" y="0px"
	 width="100%" viewBox="0 0 4096 4096" enable-background="new 0 0 4096 4096" xml:space="preserve">
<path fill="#000000" opacity="1.000000" stroke="none" 
	d="
M2428.000000,4098.000000 
	C1618.666626,4098.000000 810.333313,4098.000000 2.000000,4098.000000 
	C2.000000,2732.666748 2.000000,1367.333374 2.000000,2.000000 
	C1367.333374,2.000000 2732.666748,2.000000 4098.000000,2.000000 
	C4098.000000,1367.333374 4098.000000,2732.666748 4098.000000,4098.000000 
	C3541.666748,4098.000000 2985.333252,4098.000000 2428.000000,4098.000000 
M1606.147583,3240.141602 
	C1736.319946,3289.212402 1871.018433,3315.383789 2010.246216,3321.822510 
	C2010.270752,3436.476074 2010.302734,3551.129883 2010.317871,3665.783447 
	C2010.329712,3755.440186 2010.597412,3845.098389 2010.129272,3934.752686 
	C2010.010010,3957.580078 2031.574219,3978.826416 2056.380859,3975.908447 
	C2074.444092,3973.784424 2092.688721,3956.057617 2092.630371,3933.931396 
	C2092.102783,3733.621338 2092.319092,3533.309570 2092.337402,3332.998291 
	C2092.337646,3328.673096 2092.570557,3324.347656 2094.457275,3319.928223 
	C2104.053467,3319.348145 2113.642822,3318.445312 2123.246826,3318.247314 
	C2154.153320,3317.608643 2184.833496,3314.328125 2215.370605,3309.957275 
	C2245.906982,3305.586426 2276.503906,3301.230957 2306.718994,3295.112305 
	C2371.958740,3281.900879 2435.811768,3263.554443 2498.854004,3240.339111 
	C2498.854004,3240.339111 2499.629395,3240.582520 2499.870117,3242.011230 
	C2509.963379,3266.596680 2520.041992,3291.187988 2530.153320,3315.765869 
	C2545.575684,3353.252197 2560.830322,3390.808838 2576.545654,3428.171875 
	C2583.114258,3443.788574 2594.966553,3453.159912 2612.375000,3454.289795 
	C2643.644287,3456.319824 2665.319824,3427.182861 2653.458252,3396.922852 
	C2638.303467,3358.260498 2621.881592,3320.095947 2606.096191,3281.679199 
	C2595.999268,3257.106201 2586.065186,3232.466064 2577.310059,3207.270020 
	C2599.627197,3196.162598 2622.311279,3185.727539 2644.170898,3173.782959 
	C2673.327148,3157.850830 2702.378418,3141.601074 2730.527344,3123.974854 
	C2798.318115,3081.526367 2861.208740,3032.577637 2920.625732,2978.281250 
	C2920.977539,2978.362793 2921.329590,2978.444336 2922.329834,2979.669678 
	C2923.264160,2980.625732 2924.189697,2981.590820 2925.134766,2982.536133 
	C3067.939209,3125.358398 3210.744629,3268.179932 3353.551270,3411.000000 
	C3354.729492,3412.178223 3355.865234,3413.406982 3357.116699,3414.502686 
	C3379.945068,3434.488037 3416.871582,3422.979980 3424.127441,3393.670654 
	C3428.192627,3377.250244 3423.375732,3363.815430 3411.545654,3351.997070 
	C3269.364258,3209.965088 3127.285889,3067.830078 2985.165039,2925.737549 
	C2983.057373,2923.630615 2980.750732,2921.722656 2978.504639,2918.985352 
	C2978.504639,2918.985352 2978.490723,2918.249023 2979.557373,2917.491211 
	C2985.365967,2911.089844 2991.131348,2904.648682 2996.990234,2898.293457 
	C3024.758057,2868.175293 3050.162598,2836.154297 3074.573242,2803.272949 
	C3113.756348,2750.491943 3148.324951,2694.854248 3178.602295,2636.566406 
	C3189.170898,2616.220459 3198.443848,2595.201660 3209.122559,2574.358398 
	C3209.122559,2574.358398 3209.935303,2574.195068 3210.913574,2575.188721 
	C3230.543457,2583.367920 3250.156738,2591.587402 3269.806641,2599.718262 
	C3312.184570,2617.252686 3354.593750,2634.712402 3396.960693,2652.272949 
	C3405.191406,2655.684570 3413.629150,2656.779785 3422.312744,2654.975342 
	C3440.688965,2651.156250 3453.736328,2637.123779 3455.517334,2618.556885 
	C3457.043701,2602.646729 3449.684814,2584.115723 3429.370361,2575.714600 
	C3388.835449,2558.951172 3348.265869,2542.270752 3307.751709,2525.456787 
	C3285.661621,2516.288574 3263.655762,2506.917236 3241.838379,2496.144287 
	C3243.355469,2491.397949 3244.887207,2486.656250 3246.387207,2481.904541 
	C3256.992432,2448.311768 3268.529541,2414.978760 3277.983398,2381.064941 
	C3294.236572,2322.760986 3305.840576,2263.434814 3312.213135,2203.196289 
	C3315.317383,2173.851807 3317.585938,2144.416748 3320.000244,2115.003662 
	C3320.625244,2107.392578 3320.374756,2099.709473 3322.315430,2091.771973 
	C3339.644043,2091.740967 3356.972900,2091.683350 3374.301514,2091.682861 
	C3561.258057,2091.675781 3748.214844,2091.487305 3935.170410,2091.910645 
	C3959.367920,2091.965576 3983.363525,2068.757080 3975.650391,2039.500000 
	C3971.383545,2023.316162 3954.710449,2009.355591 3934.664307,2009.401733 
	C3734.712158,2009.862671 3534.758301,2009.683350 3334.804932,2009.663696 
	C3330.481445,2009.663330 3326.158203,2009.411133 3321.122314,2007.879150 
	C3320.795166,2005.595825 3320.307861,2003.322388 3320.166016,2001.027710 
	C3318.814209,1979.165771 3317.691895,1957.288086 3316.170654,1935.438110 
	C3313.955322,1903.622437 3309.465576,1872.093872 3304.314209,1840.621948 
	C3294.305664,1779.470947 3279.818604,1719.443481 3260.511963,1660.577271 
	C3254.292969,1641.615356 3247.815430,1622.738281 3241.853516,1602.989380 
	C3241.853516,1602.989380 3242.189209,1602.129517 3243.645508,1601.932739 
	C3291.298096,1582.272827 3338.947754,1562.605103 3386.605469,1542.957520 
	C3400.748535,1537.126709 3414.978271,1531.501343 3429.053955,1525.512695 
	C3444.801025,1518.812622 3454.235107,1506.802856 3455.471924,1489.743164 
	C3456.635986,1473.682373 3450.392578,1460.330688 3436.387451,1451.632935 
	C3423.220947,1443.455933 3409.333008,1443.621948 3395.236572,1449.452637 
	C3353.744385,1466.615479 3312.208252,1483.671631 3270.734131,1500.877930 
	C3250.469238,1509.285034 3230.303955,1517.933105 3209.207031,1526.306030 
	C3209.207031,1526.306030 3208.309570,1526.218140 3207.979492,1524.770996 
	C3197.266357,1503.000732 3186.827393,1481.090332 3175.784668,1459.488525 
	C3150.917236,1410.843750 3122.126709,1364.557007 3090.687500,1319.911133 
	C3068.281982,1288.094116 3044.673096,1257.200562 3019.107422,1227.832153 
	C3005.805176,1212.551025 2992.556885,1197.222778 2979.973633,1180.709961 
	C2982.541016,1178.099121 2985.089355,1175.469482 2987.678711,1172.880493 
	C3127.833984,1032.719360 3267.992920,892.562134 3408.151367,752.404053 
	C3410.271240,750.284058 3412.438477,748.208557 3414.500244,746.033447 
	C3426.213867,733.677429 3429.564941,714.570557 3420.480225,697.961853 
	C3411.345459,681.261414 3393.276855,673.593262 3374.770508,677.593018 
	C3365.534180,679.589111 3358.595215,684.777649 3352.115234,691.261658 
	C3211.058594,832.405701 3069.949951,973.497986 2928.834473,1114.583374 
	C2926.019531,1117.397949 2923.003662,1120.011597 2918.943604,1121.892334 
	C2916.077881,1119.622314 2913.143311,1117.433472 2910.357178,1115.069580 
	C2883.761719,1092.503296 2857.625732,1069.369629 2830.505371,1047.453369 
	C2794.769287,1018.574463 2756.931396,992.518433 2717.546143,968.860535 
	C2691.901123,953.455933 2665.853516,938.660645 2639.454102,924.590759 
	C2618.653076,913.504517 2597.039307,903.942627 2575.692871,892.802124 
	C2575.692871,892.802124 2575.520264,891.909241 2576.297363,890.679077 
	C2576.632568,890.103638 2577.040527,889.558350 2577.292480,888.948364 
	C2602.310791,828.394836 2627.267822,767.815796 2652.393311,707.306580 
	C2655.272705,700.372681 2656.541992,693.414551 2656.383301,685.949158 
	C2655.850098,660.812134 2632.599121,642.187134 2607.868164,647.130249 
	C2591.684570,650.364990 2581.687744,660.266907 2575.562012,675.217041 
	C2558.034912,717.993713 2540.166504,760.630249 2522.558105,803.373718 
	C2514.836914,822.116333 2507.421631,840.985107 2499.013184,860.118225 
	C2499.013184,860.118225 2498.183838,860.501160 2496.650879,860.203430 
	C2495.057861,859.738647 2493.430908,859.365723 2491.876465,858.795715 
	C2453.458008,844.706726 2414.569824,832.087646 2374.942871,821.844788 
	C2318.302002,807.204224 2261.103027,795.433289 2202.810059,789.657532 
	C2174.437988,786.846375 2146.028320,784.391479 2117.613037,782.048340 
	C2109.341309,781.366150 2100.991699,781.626343 2092.414307,779.668152 
	C2092.383545,776.335754 2092.325684,773.003296 2092.325684,769.670898 
	C2092.320801,568.365051 2092.063965,367.058472 2092.638428,165.754272 
	C2092.712158,139.916183 2064.001953,114.627159 2033.926514,128.968048 
	C2017.748779,136.682083 2010.214478,150.108383 2010.228027,168.385941 
	C2010.375610,368.025238 2010.322266,567.664673 2010.304810,767.304077 
	C2010.304443,771.629517 2010.079590,775.954895 2008.406738,780.820312 
	C1992.523926,781.830566 1976.623779,782.626343 1960.762207,783.900879 
	C1936.286133,785.867554 1911.724365,787.314758 1887.405029,790.537964 
	C1858.792847,794.330139 1830.234253,798.961914 1801.949951,804.697266 
	C1752.399292,814.744751 1703.464722,827.383362 1655.430908,843.307312 
	C1638.395996,848.954590 1621.386108,854.678162 1603.527588,859.133545 
	C1590.418335,827.526855 1577.297119,795.925110 1564.203125,764.312134 
	C1551.616943,733.925537 1539.055664,703.528687 1526.489990,673.133606 
	C1519.915039,657.229248 1507.917603,647.976318 1490.972046,646.547241 
	C1475.748657,645.263367 1462.785767,651.106140 1453.852905,663.788452 
	C1444.214844,677.472107 1444.221558,692.186340 1450.533691,707.364258 
	C1471.073120,756.752380 1491.438843,806.212646 1511.970703,855.603882 
	C1517.056519,867.838013 1522.517944,879.915955 1527.642822,892.880920 
	C1527.642822,892.880920 1527.511475,893.701721 1526.121704,894.059448 
	C1521.235229,896.160583 1516.272827,898.102173 1511.473877,900.387146 
	C1460.642334,924.591248 1411.187012,951.341492 1364.083130,982.200684 
	C1338.768433,998.785156 1313.879761,1016.086914 1289.526733,1034.051758 
	C1269.208496,1049.040283 1249.623657,1065.079102 1230.324463,1081.375610 
	C1214.338745,1094.873901 1199.243774,1109.426758 1183.019409,1123.498169 
	C1183.019409,1123.498169 1182.285034,1123.471191 1181.660889,1122.317139 
	C1180.969116,1121.590698 1180.292480,1120.849121 1179.583374,1120.139893 
	C1036.088867,976.640930 892.592285,833.144104 749.094482,689.648499 
	C747.916504,688.470459 746.793762,687.224548 745.526611,686.150146 
	C731.418274,674.187439 711.533569,673.075378 696.312012,683.059204 
	C680.130859,693.672485 673.532959,713.794617 679.669434,731.294739 
	C682.279846,738.739258 687.017090,744.539612 692.510803,750.030029 
	C833.930481,891.363403 975.298828,1032.748169 1116.659668,1174.140381 
	C1119.237427,1176.718628 1121.615601,1179.496460 1123.315674,1183.245728 
	C1109.144531,1199.112549 1094.282349,1214.422852 1080.957520,1230.971191 
	C1058.656860,1258.666504 1036.716675,1286.698486 1015.754578,1315.413696 
	C986.308899,1355.749878 959.762146,1398.046143 936.238586,1442.110107 
	C921.518799,1469.682861 908.141418,1497.972046 892.695984,1525.707520 
	C858.913147,1511.774414 825.131226,1497.839111 791.347290,1483.908813 
	C762.475403,1472.004150 733.783142,1459.635742 704.670837,1448.351074 
	C681.054382,1439.196899 655.377747,1450.918091 648.754211,1476.191284 
	C643.431702,1496.500244 653.907837,1517.249146 674.218323,1525.648560 
	C719.966614,1544.567749 765.731750,1563.446411 811.521851,1582.264160 
	C828.102905,1589.078247 844.774963,1595.671021 861.659241,1603.143921 
	C861.659241,1603.143921 862.009827,1603.884399 861.454102,1605.252563 
	C849.028259,1643.867920 835.147705,1682.087280 824.500488,1721.186890 
	C806.237793,1788.252808 793.248596,1856.456177 787.791138,1925.897583 
	C785.607544,1953.682129 783.907166,1981.504639 780.134033,2009.588379 
	C775.801453,2009.619141 771.468933,2009.676514 767.136353,2009.676636 
	C567.153076,2009.681763 367.168823,2009.970215 167.187881,2009.285278 
	C144.457672,2009.207397 117.551849,2033.338135 128.190079,2064.178955 
	C133.104340,2078.425781 148.595551,2091.923828 169.122482,2091.887939 
	C369.105164,2091.538818 569.088684,2091.676514 769.071960,2091.692871 
	C773.398499,2091.693115 777.725098,2091.902588 782.109558,2093.869141 
	C782.767395,2107.785889 783.198792,2121.717773 784.139587,2135.615234 
	C785.348877,2153.478027 786.253906,2171.406006 788.569763,2189.138916 
	C792.432678,2218.718994 796.958374,2248.224609 801.841370,2277.656006 
	C810.062317,2327.206299 822.338989,2375.834961 837.119141,2423.798828 
	C844.749146,2448.559326 853.586243,2472.947510 860.574646,2498.151855 
	C840.014954,2506.741211 819.477295,2515.383789 798.890869,2523.908447 
	C757.087708,2541.218506 715.206116,2558.340820 673.467834,2575.805908 
	C658.890259,2581.905518 649.715637,2592.959717 647.931335,2608.906494 
	C646.089417,2625.367676 651.451904,2639.342529 665.565002,2648.696777 
	C678.367920,2657.182617 692.195374,2658.033936 706.502625,2652.093506 
	C748.286621,2634.745361 790.097778,2617.461914 831.945557,2600.268066 
	C852.550049,2591.802490 873.258606,2583.590088 894.814880,2576.444824 
	C897.205322,2581.553711 899.420410,2586.753662 902.015442,2591.756592 
	C916.859375,2620.375244 931.319580,2649.206543 946.809204,2677.473145 
	C969.518066,2718.913330 995.703186,2758.192871 1023.351013,2796.486084 
	C1047.866577,2830.440918 1074.279663,2862.895752 1101.861084,2894.393555 
	C1109.061279,2902.615967 1116.841919,2910.330322 1124.187744,2919.150391 
	C1124.187744,2919.150391 1124.064941,2920.030029 1122.886230,2920.652100 
	C1121.932861,2921.578613 1120.967407,2922.493408 1120.027344,2923.433350 
	C977.282654,3066.170410 834.539856,3208.909424 691.797729,3351.649170 
	C690.384460,3353.062256 688.899963,3354.415039 687.590271,3355.919434 
	C667.602234,3378.881104 678.683411,3415.686768 708.057068,3423.047363 
	C724.610535,3427.195557 738.494141,3422.230469 750.657471,3410.047363 
	C892.339600,3268.132080 1034.183105,3126.377686 1175.968018,2984.564941 
	C1178.072876,2982.459473 1179.973389,2980.149414 1182.852051,2977.810303 
	C1182.852051,2977.810303 1183.727051,2977.639160 1184.470581,2978.817627 
	C1187.937866,2981.907227 1191.351685,2985.059326 1194.881104,2988.076416 
	C1219.404663,3009.038330 1243.255981,3030.860352 1268.625732,3050.744385 
	C1338.535034,3105.537354 1413.246582,3152.865234 1493.240967,3191.683105 
	C1504.607178,3197.198730 1515.905273,3202.854004 1526.704468,3209.856201 
	C1526.158081,3211.070801 1525.578125,3212.271729 1525.070068,3213.502441 
	C1504.004395,3264.514404 1482.946045,3315.529541 1461.884521,3366.543457 
	C1457.570435,3376.992188 1452.931274,3387.320068 1448.998779,3397.910400 
	C1442.324463,3415.886719 1448.143433,3436.005127 1462.501465,3446.195801 
	C1485.985840,3462.864014 1515.588501,3454.056152 1526.747192,3427.139893 
	C1548.903564,3373.695312 1571.166748,3320.295166 1593.218628,3266.807617 
	C1596.739136,3258.268311 1599.391235,3249.371094 1603.258789,3240.421875 
	C1603.731567,3240.119873 1604.198120,3239.808594 1606.147583,3240.141602 
z"/>
<path fill="#E12326" opacity="1.000000" stroke="none" 
	d="
M2920.081543,1122.718994 
	C2923.003662,1120.011597 2926.019531,1117.397949 2928.834473,1114.583374 
	C3069.949951,973.497986 3211.058594,832.405701 3352.115234,691.261658 
	C3358.595215,684.777649 3365.534180,679.589111 3374.770508,677.593018 
	C3393.276855,673.593262 3411.345459,681.261414 3420.480225,697.961853 
	C3429.564941,714.570557 3426.213867,733.677429 3414.500244,746.033447 
	C3412.438477,748.208557 3410.271240,750.284058 3408.151367,752.404053 
	C3267.992920,892.562134 3127.833984,1032.719360 2987.678711,1172.880493 
	C2985.089355,1175.469482 2982.541016,1178.099121 2979.254883,1181.292725 
	C2978.536133,1181.875610 2977.781250,1181.912109 2977.228760,1181.562012 
	C2969.685547,1173.722290 2962.901855,1166.025269 2955.656982,1158.789917 
	C2943.959961,1147.108521 2931.959473,1135.731201 2920.103516,1123.848755 
	C2920.119629,1123.472046 2920.081543,1122.718994 2920.081543,1122.718994 
z"/>
<path fill="#E22326" opacity="1.000000" stroke="none" 
	d="
M1181.969238,2977.934814 
	C1179.973389,2980.149414 1178.072876,2982.459473 1175.968018,2984.564941 
	C1034.183105,3126.377686 892.339600,3268.132080 750.657471,3410.047363 
	C738.494141,3422.230469 724.610535,3427.195557 708.057068,3423.047363 
	C678.683411,3415.686768 667.602234,3378.881104 687.590271,3355.919434 
	C688.899963,3354.415039 690.384460,3353.062256 691.797729,3351.649170 
	C834.539856,3208.909424 977.282654,3066.170410 1120.027344,2923.433350 
	C1120.967407,2922.493408 1121.932861,2921.578613 1124.145020,2920.466553 
	C1126.288086,2920.712646 1127.365723,2920.948730 1128.028198,2921.604248 
	C1144.963257,2938.363770 1161.891479,2955.131104 1178.693970,2972.023193 
	C1180.222290,2973.559326 1180.897827,2975.944092 1181.969238,2977.934814 
z"/>
<path fill="#E32326" opacity="1.000000" stroke="none" 
	d="
M1124.086914,1182.181152 
	C1121.615601,1179.496460 1119.237427,1176.718628 1116.659668,1174.140381 
	C975.298828,1032.748169 833.930481,891.363403 692.510803,750.030029 
	C687.017090,744.539612 682.279846,738.739258 679.669434,731.294739 
	C673.532959,713.794617 680.130859,693.672485 696.312012,683.059204 
	C711.533569,673.075378 731.418274,674.187439 745.526611,686.150146 
	C746.793762,687.224548 747.916504,688.470459 749.094482,689.648499 
	C892.592285,833.144104 1036.088867,976.640930 1179.583374,1120.139893 
	C1180.292480,1120.849121 1180.969116,1121.590698 1181.641602,1123.519043 
	C1165.621582,1140.938232 1149.593750,1157.128906 1133.645752,1173.397827 
	C1130.893921,1176.205200 1128.481812,1179.345581 1125.456787,1182.287476 
	C1125.000854,1182.242798 1124.086914,1182.181152 1124.086914,1182.181152 
z"/>
<path fill="#E32326" opacity="1.000000" stroke="none" 
	d="
M2978.537109,2919.721680 
	C2980.750732,2921.722656 2983.057373,2923.630615 2985.165039,2925.737549 
	C3127.285889,3067.830078 3269.364258,3209.965088 3411.545654,3351.997070 
	C3423.375732,3363.815430 3428.192627,3377.250244 3424.127441,3393.670654 
	C3416.871582,3422.979980 3379.945068,3434.488037 3357.116699,3414.502686 
	C3355.865234,3413.406982 3354.729492,3412.178223 3353.551270,3411.000000 
	C3210.744629,3268.179932 3067.939209,3125.358398 2925.134766,2982.536133 
	C2924.189697,2981.590820 2923.264160,2980.625732 2922.157959,2978.384277 
	C2924.167969,2974.224609 2926.067871,2971.073242 2928.579102,2968.523682 
	C2941.665039,2955.237549 2954.866211,2942.063721 2968.122070,2928.946533 
	C2971.413818,2925.689697 2975.056152,2922.787354 2978.537109,2919.721680 
z"/>
<path fill="#E42326" opacity="1.000000" stroke="none" 
	d="
M2009.959351,780.280334 
	C2010.079590,775.954895 2010.304443,771.629517 2010.304810,767.304077 
	C2010.322266,567.664673 2010.375610,368.025238 2010.228027,168.385941 
	C2010.214478,150.108383 2017.748779,136.682083 2033.926514,128.968048 
	C2064.001953,114.627159 2092.712158,139.916183 2092.638428,165.754272 
	C2092.063965,367.058472 2092.320801,568.365051 2092.325684,769.670898 
	C2092.325684,773.003296 2092.383545,776.335754 2092.345703,780.682495 
	C2092.277100,781.696777 2091.869385,781.926270 2090.949707,781.948364 
	C2075.494873,781.342163 2060.961426,780.296692 2046.422974,780.216187 
	C2034.546143,780.150330 2022.662964,781.236389 2010.591797,781.420776 
	C2010.401123,781.029846 2009.959351,780.280334 2009.959351,780.280334 
z"/>
<path fill="#E42326" opacity="1.000000" stroke="none" 
	d="
M3321.834717,2009.276367 
	C3326.158203,2009.411133 3330.481445,2009.663330 3334.804932,2009.663696 
	C3534.758301,2009.683350 3734.712158,2009.862671 3934.664307,2009.401733 
	C3954.710449,2009.355591 3971.383545,2023.316162 3975.650391,2039.500000 
	C3983.363525,2068.757080 3959.367920,2091.965576 3935.170410,2091.910645 
	C3748.214844,2091.487305 3561.258057,2091.675781 3374.301514,2091.682861 
	C3356.972900,2091.683350 3339.644043,2091.740967 3321.365723,2091.705078 
	C3320.416260,2091.638428 3320.288574,2091.225342 3320.224854,2090.348145 
	C3320.744629,2077.577637 3321.842285,2065.681396 3321.780518,2053.791260 
	C3321.704834,2039.236450 3320.657715,2024.686890 3320.489746,2009.936401 
	C3320.948242,2009.737793 3321.834717,2009.276367 3321.834717,2009.276367 
z"/>
<path fill="#E42326" opacity="1.000000" stroke="none" 
	d="
M2092.694580,3320.022461 
	C2092.570557,3324.347656 2092.337646,3328.673096 2092.337402,3332.998291 
	C2092.319092,3533.309570 2092.102783,3733.621338 2092.630371,3933.931396 
	C2092.688721,3956.057617 2074.444092,3973.784424 2056.380859,3975.908447 
	C2031.574219,3978.826416 2010.010010,3957.580078 2010.129272,3934.752686 
	C2010.597412,3845.098389 2010.329712,3755.440186 2010.317871,3665.783447 
	C2010.302734,3551.129883 2010.270752,3436.476074 2010.270020,3320.993408 
	C2010.293823,3320.164307 2010.663818,3320.194580 2011.555420,3320.148682 
	C2038.949097,3320.073242 2065.451416,3320.043701 2092.138672,3320.038330 
	C2092.323730,3320.062744 2092.694580,3320.022461 2092.694580,3320.022461 
z"/>
<path fill="#E42326" opacity="1.000000" stroke="none" 
	d="
M782.051636,2092.014404 
	C777.725098,2091.902588 773.398499,2091.693115 769.071960,2091.692871 
	C569.088684,2091.676514 369.105164,2091.538818 169.122482,2091.887939 
	C148.595551,2091.923828 133.104340,2078.425781 128.190079,2064.178955 
	C117.551849,2033.338135 144.457672,2009.207397 167.187881,2009.285278 
	C367.168823,2009.970215 567.153076,2009.681763 767.136353,2009.676636 
	C771.468933,2009.676514 775.801453,2009.619141 781.037415,2009.634033 
	C781.940796,2009.679688 781.986084,2010.049438 782.005615,2010.983154 
	C781.953064,2038.389771 781.881104,2064.862793 781.825195,2091.521240 
	C781.841248,2091.706787 782.051636,2092.014404 782.051636,2092.014404 
z"/>
<path fill="#E22326" opacity="1.000000" stroke="none" 
	d="
M3241.611816,2497.637695 
	C3263.655762,2506.917236 3285.661621,2516.288574 3307.751709,2525.456787 
	C3348.265869,2542.270752 3388.835449,2558.951172 3429.370361,2575.714600 
	C3449.684814,2584.115723 3457.043701,2602.646729 3455.517334,2618.556885 
	C3453.736328,2637.123779 3440.688965,2651.156250 3422.312744,2654.975342 
	C3413.629150,2656.779785 3405.191406,2655.684570 3396.960693,2652.272949 
	C3354.593750,2634.712402 3312.184570,2617.252686 3269.806641,2599.718262 
	C3250.156738,2591.587402 3230.543457,2583.367920 3210.460449,2573.924316 
	C3210.529297,2570.761475 3210.847900,2568.777344 3211.605225,2566.977783 
	C3219.293457,2548.709229 3227.209961,2530.534424 3234.681152,2512.178223 
	C3236.508301,2507.689453 3236.942871,2502.634033 3238.619873,2497.822021 
	C3240.018799,2497.749268 3240.815186,2497.693604 3241.611816,2497.637695 
z"/>
<path fill="#E22326" opacity="1.000000" stroke="none" 
	d="
M1527.806641,892.065674 
	C1522.517944,879.915955 1517.056519,867.838013 1511.970703,855.603882 
	C1491.438843,806.212646 1471.073120,756.752380 1450.533691,707.364258 
	C1444.221558,692.186340 1444.214844,677.472107 1453.852905,663.788452 
	C1462.785767,651.106140 1475.748657,645.263367 1490.972046,646.547241 
	C1507.917603,647.976318 1519.915039,657.229248 1526.489990,673.133606 
	C1539.055664,703.528687 1551.616943,733.925537 1564.203125,764.312134 
	C1577.297119,795.925110 1590.418335,827.526855 1603.865845,860.346313 
	C1604.186523,862.366638 1604.168945,863.174194 1603.340698,863.975464 
	C1598.391357,864.997620 1594.050659,865.534851 1590.148315,867.138550 
	C1572.143677,874.537659 1554.281006,882.281738 1536.312988,889.771545 
	C1533.625732,890.891724 1530.649292,891.318298 1527.806641,892.065674 
z"/>
<path fill="#E22326" opacity="1.000000" stroke="none" 
	d="
M893.920044,2575.263184 
	C873.258606,2583.590088 852.550049,2591.802490 831.945557,2600.268066 
	C790.097778,2617.461914 748.286621,2634.745361 706.502625,2652.093506 
	C692.195374,2658.033936 678.367920,2657.182617 665.565002,2648.696777 
	C651.451904,2639.342529 646.089417,2625.367676 647.931335,2608.906494 
	C649.715637,2592.959717 658.890259,2581.905518 673.467834,2575.805908 
	C715.206116,2558.340820 757.087708,2541.218506 798.890869,2523.908447 
	C819.477295,2515.383789 840.014954,2506.741211 861.754883,2497.972656 
	C863.291321,2497.872559 863.647644,2497.951660 864.027222,2498.791016 
	C866.074524,2505.128418 867.908936,2510.783447 870.156799,2516.268799 
	C878.052795,2535.538330 886.091064,2554.749268 894.011108,2574.299561 
	C893.946838,2574.616699 893.920044,2575.263184 893.920044,2575.263184 
z"/>
<path fill="#E22326" opacity="1.000000" stroke="none" 
	d="
M1602.444702,3240.639160 
	C1599.391235,3249.371094 1596.739136,3258.268311 1593.218628,3266.807617 
	C1571.166748,3320.295166 1548.903564,3373.695312 1526.747192,3427.139893 
	C1515.588501,3454.056152 1485.985840,3462.864014 1462.501465,3446.195801 
	C1448.143433,3436.005127 1442.324463,3415.886719 1448.998779,3397.910400 
	C1452.931274,3387.320068 1457.570435,3376.992188 1461.884521,3366.543457 
	C1482.946045,3315.529541 1504.004395,3264.514404 1525.070068,3213.502441 
	C1525.578125,3212.271729 1526.158081,3211.070801 1527.216553,3209.053223 
	C1527.728516,3208.250244 1528.207397,3208.001465 1528.904175,3208.135742 
	C1549.012329,3216.464111 1568.463501,3224.565918 1587.807861,3232.914795 
	C1592.857422,3235.094238 1597.574707,3238.043457 1602.444702,3240.639160 
z"/>
<path fill="#E22326" opacity="1.000000" stroke="none" 
	d="
M3210.093750,1526.472046 
	C3230.303955,1517.933105 3250.469238,1509.285034 3270.734131,1500.877930 
	C3312.208252,1483.671631 3353.744385,1466.615479 3395.236572,1449.452637 
	C3409.333008,1443.621948 3423.220947,1443.455933 3436.387451,1451.632935 
	C3450.392578,1460.330688 3456.635986,1473.682373 3455.471924,1489.743164 
	C3454.235107,1506.802856 3444.801025,1518.812622 3429.053955,1525.512695 
	C3414.978271,1531.501343 3400.748535,1537.126709 3386.605469,1542.957520 
	C3338.947754,1562.605103 3291.298096,1582.272827 3242.307129,1601.655029 
	C3239.922363,1599.742554 3238.612305,1598.218628 3237.871582,1596.455688 
	C3232.100342,1582.720215 3226.310547,1568.989868 3220.787842,1555.153809 
	C3217.006348,1545.679565 3213.643799,1536.038452 3210.093750,1526.472046 
z"/>
<path fill="#E22326" opacity="1.000000" stroke="none" 
	d="
M2499.867676,859.796631 
	C2507.421631,840.985107 2514.836914,822.116333 2522.558105,803.373718 
	C2540.166504,760.630249 2558.034912,717.993713 2575.562012,675.217041 
	C2581.687744,660.266907 2591.684570,650.364990 2607.868164,647.130249 
	C2632.599121,642.187134 2655.850098,660.812134 2656.383301,685.949158 
	C2656.541992,693.414551 2655.272705,700.372681 2652.393311,707.306580 
	C2627.267822,767.815796 2602.310791,828.394836 2577.292480,888.948364 
	C2577.040527,889.558350 2576.632568,890.103638 2575.173340,891.272034 
	C2572.447266,891.486511 2570.758545,891.318115 2569.256104,890.697937 
	C2547.237549,881.607666 2525.229736,872.489746 2503.276367,863.243713 
	C2501.900391,862.664185 2500.992920,860.971497 2499.867676,859.796631 
z"/>
<path fill="#E22326" opacity="1.000000" stroke="none" 
	d="
M861.405518,1602.364746 
	C844.774963,1595.671021 828.102905,1589.078247 811.521851,1582.264160 
	C765.731750,1563.446411 719.966614,1544.567749 674.218323,1525.648560 
	C653.907837,1517.249146 643.431702,1496.500244 648.754211,1476.191284 
	C655.377747,1450.918091 681.054382,1439.196899 704.670837,1448.351074 
	C733.783142,1459.635742 762.475403,1472.004150 791.347290,1483.908813 
	C825.131226,1497.839111 858.913147,1511.774414 893.497253,1526.182983 
	C894.298523,1526.658447 894.431946,1527.379517 894.081421,1528.059082 
	C887.103394,1544.319458 880.573547,1559.942871 873.811096,1575.465088 
	C869.868286,1584.515381 865.553101,1593.403564 861.405518,1602.364746 
z"/>
<path fill="#E22326" opacity="1.000000" stroke="none" 
	d="
M2576.058105,3207.856201 
	C2586.065186,3232.466064 2595.999268,3257.106201 2606.096191,3281.679199 
	C2621.881592,3320.095947 2638.303467,3358.260498 2653.458252,3396.922852 
	C2665.319824,3427.182861 2643.644287,3456.319824 2612.375000,3454.289795 
	C2594.966553,3453.159912 2583.114258,3443.788574 2576.545654,3428.171875 
	C2560.830322,3390.808838 2545.575684,3353.252197 2530.153320,3315.765869 
	C2520.041992,3291.187988 2509.963379,3266.596680 2500.216064,3240.712891 
	C2502.903564,3238.214111 2505.180176,3236.861084 2507.596680,3235.838379 
	C2529.922607,3226.389404 2552.272705,3216.997070 2574.976562,3207.653809 
	C2575.337646,3207.718750 2576.058105,3207.856201 2576.058105,3207.856201 
z"/>
<path fill="#0A513A" opacity="1.000000" stroke="none" 
	d="
M2576.684082,3207.562988 
	C2576.058105,3207.856201 2575.337646,3207.718750 2574.831055,3206.963867 
	C2572.915283,3202.726074 2571.506104,3199.243408 2570.596191,3195.306152 
	C2680.124512,3144.894531 2780.268555,3081.055664 2871.104492,3002.701416 
	C2884.450439,2991.189453 2897.561768,2979.405273 2911.232910,2968.283691 
	C2914.325684,2971.844971 2916.967773,2974.870361 2919.609619,2977.895508 
	C2861.208740,3032.577637 2798.318115,3081.526367 2730.527344,3123.974854 
	C2702.378418,3141.601074 2673.327148,3157.850830 2644.170898,3173.782959 
	C2622.311279,3185.727539 2599.627197,3196.162598 2576.684082,3207.562988 
z"/>
<path fill="#0A513A" opacity="1.000000" stroke="none" 
	d="
M894.431946,1527.379639 
	C894.431946,1527.379517 894.298523,1526.658447 894.230103,1526.299072 
	C908.141418,1497.972046 921.518799,1469.682861 936.238586,1442.110107 
	C959.762146,1398.046143 986.308899,1355.749878 1015.754578,1315.413696 
	C1036.716675,1286.698486 1058.656860,1258.666504 1080.957520,1230.971191 
	C1094.282349,1214.422852 1109.144531,1199.112549 1123.701294,1182.713379 
	C1124.086914,1182.181152 1125.000854,1182.242798 1125.743652,1182.891357 
	C1129.074463,1186.098633 1131.662598,1188.657349 1133.945068,1191.714844 
	C1132.585083,1193.494385 1131.594849,1194.834961 1130.467285,1196.047852 
	C1052.447632,1279.976807 987.193909,1372.890259 934.601074,1474.679688 
	C924.832031,1493.587036 915.667358,1512.806641 905.572998,1531.621826 
	C901.425537,1530.034424 897.928711,1528.707031 894.431946,1527.379639 
z"/>
<path fill="#0A513A" opacity="1.000000" stroke="none" 
	d="
M3208.308594,2574.489990 
	C3198.443848,2595.201660 3189.170898,2616.220459 3178.602295,2636.566406 
	C3148.324951,2694.854248 3113.756348,2750.491943 3074.573242,2803.272949 
	C3050.162598,2836.154297 3024.758057,2868.175293 2996.990234,2898.293457 
	C2991.131348,2904.648682 2985.365967,2911.089844 2978.367676,2917.544678 
	C2974.447510,2914.895752 2971.717041,2912.193115 2969.347656,2908.909668 
	C2970.773926,2907.051025 2971.780518,2905.719238 2972.911377,2904.503418 
	C3041.489502,2830.763672 3100.445068,2749.974854 3149.136719,2661.855957 
	C3165.863770,2631.584961 3180.666016,2600.250488 3197.046387,2569.570312 
	C3201.266357,2571.322510 3204.787354,2572.906250 3208.308594,2574.489990 
z"/>
<path fill="#0A513A" opacity="1.000000" stroke="none" 
	d="
M1183.754028,1123.512329 
	C1199.243774,1109.426758 1214.338745,1094.873901 1230.324463,1081.375610 
	C1249.623657,1065.079102 1269.208496,1049.040283 1289.526733,1034.051758 
	C1313.879761,1016.086914 1338.768433,998.785156 1364.083130,982.200684 
	C1411.187012,951.341492 1460.642334,924.591248 1511.473877,900.387146 
	C1516.272827,898.102173 1521.235229,896.160583 1527.236084,894.484863 
	C1529.761841,898.480347 1531.173096,902.050354 1531.926025,906.003479 
	C1529.775635,907.119690 1528.298462,907.884766 1526.789429,908.581177 
	C1420.364502,957.700195 1322.620361,1020.348145 1233.720825,1096.751465 
	C1219.847534,1108.674683 1206.242554,1120.910400 1191.982178,1132.516724 
	C1188.885254,1129.192017 1186.319702,1126.352173 1183.754028,1123.512329 
z"/>
<path fill="#0A513A" opacity="1.000000" stroke="none" 
	d="
M2977.781250,1181.912109 
	C2977.781250,1181.912109 2978.536133,1181.875610 2978.910156,1181.895630 
	C2992.556885,1197.222778 3005.805176,1212.551025 3019.107422,1227.832153 
	C3044.673096,1257.200562 3068.281982,1288.094116 3090.687500,1319.911133 
	C3122.126709,1364.557007 3150.917236,1410.843750 3175.784668,1459.488525 
	C3186.827393,1481.090332 3197.266357,1503.000732 3207.650879,1526.020020 
	C3203.846191,1528.917603 3200.370605,1530.566162 3196.542969,1531.691895 
	C3195.288574,1529.391479 3194.327393,1527.640747 3193.490967,1525.832275 
	C3145.544678,1422.137329 3084.856201,1326.552979 3010.958496,1239.407593 
	C2997.182129,1223.161865 2982.947266,1207.304565 2969.477051,1190.780029 
	C2972.613770,1187.498901 2975.197510,1184.705444 2977.781250,1181.912109 
z"/>
<path fill="#0A513A" opacity="1.000000" stroke="none" 
	d="
M2919.512695,1122.305664 
	C2920.081543,1122.718994 2920.119629,1123.472046 2919.489746,1124.186279 
	C2916.155273,1127.642334 2913.450439,1130.384277 2910.242188,1132.759766 
	C2908.191406,1131.138306 2906.567139,1129.966553 2905.107666,1128.616211 
	C2812.268555,1042.702393 2708.924072,972.223633 2594.907715,917.413208 
	C2586.512451,913.377502 2578.174805,909.221619 2570.211914,904.512268 
	C2572.337402,900.503174 2574.062012,897.103394 2575.786621,893.703674 
	C2597.039307,903.942627 2618.653076,913.504517 2639.454102,924.590759 
	C2665.853516,938.660645 2691.901123,953.455933 2717.546143,968.860535 
	C2756.931396,992.518433 2794.769287,1018.574463 2830.505371,1047.453369 
	C2857.625732,1069.369629 2883.761719,1092.503296 2910.357178,1115.069580 
	C2913.143311,1117.433472 2916.077881,1119.622314 2919.512695,1122.305664 
z"/>
<path fill="#0A503A" opacity="1.000000" stroke="none" 
	d="
M781.963745,2009.494873 
	C783.907166,1981.504639 785.607544,1953.682129 787.791138,1925.897583 
	C793.248596,1856.456177 806.237793,1788.252808 824.500488,1721.186890 
	C835.147705,1682.087280 849.028259,1643.867920 862.480591,1604.571777 
	C867.207153,1605.315796 870.907349,1606.740479 874.477295,1608.914062 
	C874.098511,1610.630859 873.936768,1611.631348 873.588745,1612.562256 
	C850.098999,1675.388672 831.956360,1739.732178 819.002136,1805.532959 
	C809.931824,1851.605103 803.050049,1897.992920 799.721252,1944.861694 
	C798.189148,1966.433838 796.828552,1988.018188 794.554749,2009.605347 
	C789.808167,2009.758911 785.897156,2009.904175 781.986084,2010.049438 
	C781.986084,2010.049438 781.940796,2009.679688 781.963745,2009.494873 
z"/>
<path fill="#0A503A" opacity="1.000000" stroke="none" 
	d="
M2498.117432,3239.994629 
	C2435.811768,3263.554443 2371.958740,3281.900879 2306.718994,3295.112305 
	C2276.503906,3301.230957 2245.906982,3305.586426 2215.370605,3309.957275 
	C2184.833496,3314.328125 2154.153320,3317.608643 2123.246826,3318.247314 
	C2113.642822,3318.445312 2104.053467,3319.348145 2093.575928,3319.975342 
	C2092.694580,3320.022461 2092.323730,3320.062744 2092.279297,3319.207031 
	C2092.289551,3314.436279 2092.343994,3310.521240 2093.293457,3306.456543 
	C2105.142822,3305.645020 2116.125977,3305.288330 2127.046875,3304.265137 
	C2161.124023,3301.072998 2195.286621,3298.476318 2229.217285,3294.104736 
	C2297.675049,3285.284424 2364.674805,3269.551514 2430.439941,3248.647705 
	C2451.671875,3241.899658 2472.696045,3234.498047 2494.119629,3228.074951 
	C2495.655029,3232.501221 2496.886230,3236.248047 2498.117432,3239.994629 
z"/>
<path fill="#0A513A" opacity="1.000000" stroke="none" 
	d="
M3321.478516,2008.577759 
	C3321.834717,2009.276367 3320.948242,2009.737793 3319.641113,2009.772461 
	C3314.878906,2009.739746 3311.424316,2009.672119 3307.811523,2008.799561 
	C3307.206543,2003.689941 3306.467285,1999.392578 3306.358398,1995.079590 
	C3305.392822,1956.771362 3301.376465,1918.745483 3296.385742,1880.782349 
	C3288.123779,1817.938232 3275.051270,1756.111938 3256.842529,1695.432861 
	C3248.044189,1666.112793 3237.813721,1637.222412 3228.903564,1607.920166 
	C3233.535645,1606.409424 3237.495850,1605.115967 3241.456055,1603.822510 
	C3247.815430,1622.738281 3254.292969,1641.615356 3260.511963,1660.577271 
	C3279.818604,1719.443481 3294.305664,1779.470947 3304.314209,1840.621948 
	C3309.465576,1872.093872 3313.955322,1903.622437 3316.170654,1935.438110 
	C3317.691895,1957.288086 3318.814209,1979.165771 3320.166016,2001.027710 
	C3320.307861,2003.322388 3320.795166,2005.595825 3321.478516,2008.577759 
z"/>
<path fill="#0A513A" opacity="1.000000" stroke="none" 
	d="
M2092.477539,781.575684 
	C2100.991699,781.626343 2109.341309,781.366150 2117.613037,782.048340 
	C2146.028320,784.391479 2174.437988,786.846375 2202.810059,789.657532 
	C2261.103027,795.433289 2318.302002,807.204224 2374.942871,821.844788 
	C2414.569824,832.087646 2453.458008,844.706726 2491.876465,858.795715 
	C2493.430908,859.365723 2495.057861,859.738647 2497.430176,861.106995 
	C2496.817383,865.869690 2495.425781,869.728882 2493.449219,873.615417 
	C2445.029785,856.107910 2396.478760,840.934387 2346.919678,829.018738 
	C2282.781494,813.597778 2217.841797,803.264587 2152.089355,798.082275 
	C2132.208496,796.515320 2112.295410,795.356079 2092.374268,793.145996 
	C2092.190674,788.830017 2092.030029,785.378113 2091.869385,781.926270 
	C2091.869385,781.926270 2092.277100,781.696777 2092.477539,781.575684 
z"/>
<path fill="#0A513A" opacity="1.000000" stroke="none" 
	d="
M1528.207275,3208.001465 
	C1528.207397,3208.001465 1527.728516,3208.250244 1527.481689,3208.347656 
	C1515.905273,3202.854004 1504.607178,3197.198730 1493.240967,3191.683105 
	C1413.246582,3152.865234 1338.535034,3105.537354 1268.625732,3050.744385 
	C1243.255981,3030.860352 1219.404663,3009.038330 1194.881104,2988.076416 
	C1191.351685,2985.059326 1187.937866,2981.907227 1184.369141,2977.631348 
	C1186.945923,2973.589111 1189.624146,2970.733398 1192.879639,2968.178223 
	C1194.714355,2969.566895 1196.005127,2970.618896 1197.223877,2971.748291 
	C1288.861450,3056.692383 1390.874268,3126.483154 1503.174194,3181.252930 
	C1513.017700,3186.053711 1522.845581,3190.886719 1532.458008,3196.408691 
	C1530.892700,3200.742432 1529.550049,3204.371826 1528.207275,3208.001465 
z"/>
<path fill="#0A513A" opacity="1.000000" stroke="none" 
	d="
M894.367432,2575.854004 
	C893.920044,2575.263184 893.946838,2574.616699 894.711792,2574.148682 
	C899.079834,2572.242432 902.682983,2570.804199 906.767883,2569.890137 
	C908.258118,2572.510498 909.294434,2574.593506 910.271118,2576.704102 
	C958.456421,2680.828613 1019.722961,2776.593750 1094.051025,2863.983154 
	C1107.179688,2879.419189 1120.757202,2894.473633 1133.613159,2910.108887 
	C1130.184448,2913.102051 1127.270142,2915.689941 1124.355957,2918.277832 
	C1116.841919,2910.330322 1109.061279,2902.615967 1101.861084,2894.393555 
	C1074.279663,2862.895752 1047.866577,2830.440918 1023.351013,2796.486084 
	C995.703186,2758.192871 969.518066,2718.913330 946.809204,2677.473145 
	C931.319580,2649.206543 916.859375,2620.375244 902.015442,2591.756592 
	C899.420410,2586.753662 897.205322,2581.553711 894.367432,2575.854004 
z"/>
<path fill="#0A513A" opacity="1.000000" stroke="none" 
	d="
M1604.151245,863.981812 
	C1604.168945,863.174194 1604.186523,862.366638 1604.284424,860.963013 
	C1621.386108,854.678162 1638.395996,848.954590 1655.430908,843.307312 
	C1703.464722,827.383362 1752.399292,814.744751 1801.949951,804.697266 
	C1830.234253,798.961914 1858.792847,794.330139 1887.405029,790.537964 
	C1911.724365,787.314758 1936.286133,785.867554 1960.762207,783.900879 
	C1976.623779,782.626343 1992.523926,781.830566 2009.183105,780.550293 
	C2009.959351,780.280334 2010.401123,781.029846 2010.412354,782.281372 
	C2010.365356,787.045654 2010.307251,790.558472 2009.397461,794.246338 
	C2004.240967,794.844238 1999.943115,795.533569 1995.630005,795.648743 
	C1952.339600,796.804504 1909.387817,801.493713 1866.572998,807.728943 
	C1806.208374,816.519958 1746.776001,829.539917 1688.498535,847.559998 
	C1661.808838,855.812744 1635.416138,865.025391 1608.675781,873.135498 
	C1607.025635,869.639404 1605.588501,866.810608 1604.151245,863.981812 
z"/>
<path fill="#0A513A" opacity="1.000000" stroke="none" 
	d="
M2010.139648,3320.061035 
	C1871.018433,3315.383789 1736.319946,3289.212402 1605.570068,3239.018555 
	C1606.331055,3234.359375 1607.669312,3230.822754 1609.691895,3227.448975 
	C1611.662476,3227.950195 1612.988647,3228.181152 1614.229248,3228.642090 
	C1676.759155,3251.883301 1740.733032,3270.005615 1806.194092,3282.870117 
	C1852.581787,3291.986328 1899.271484,3298.931885 1946.454102,3302.278809 
	C1967.686157,3303.785400 1988.930420,3305.120850 2010.185303,3307.386230 
	C2010.355591,3312.223633 2010.509766,3316.208984 2010.663818,3320.194580 
	C2010.663818,3320.194580 2010.293823,3320.164307 2010.139648,3320.061035 
z"/>
<path fill="#0A513A" opacity="1.000000" stroke="none" 
	d="
M3241.725098,2496.891113 
	C3240.815186,2497.693604 3240.018799,2497.749268 3238.193848,2497.288818 
	C3234.179443,2495.552979 3231.192871,2494.333496 3228.304688,2492.449219 
	C3238.669434,2460.538818 3249.785645,2429.542725 3259.036133,2397.999268 
	C3282.761963,2317.094727 3297.344971,2234.438477 3303.964355,2150.392090 
	C3305.502441,2130.863525 3306.605957,2111.300781 3308.795410,2091.741211 
	C3313.217285,2091.560791 3316.752930,2091.393066 3320.288574,2091.225098 
	C3320.288574,2091.225342 3320.416260,2091.638428 3320.471191,2091.849121 
	C3320.374756,2099.709473 3320.625244,2107.392578 3320.000244,2115.003662 
	C3317.585938,2144.416748 3315.317383,2173.851807 3312.213135,2203.196289 
	C3305.840576,2263.434814 3294.236572,2322.760986 3277.983398,2381.064941 
	C3268.529541,2414.978760 3256.992432,2448.311768 3246.387207,2481.904541 
	C3244.887207,2486.656250 3243.355469,2491.397949 3241.725098,2496.891113 
z"/>
<path fill="#09503A" opacity="1.000000" stroke="none" 
	d="
M864.003906,2498.030762 
	C863.647644,2497.951660 863.291321,2497.872559 862.406494,2497.648682 
	C853.586243,2472.947510 844.749146,2448.559326 837.119141,2423.798828 
	C822.338989,2375.834961 810.062317,2327.206299 801.841370,2277.656006 
	C796.958374,2248.224609 792.432678,2218.718994 788.569763,2189.138916 
	C786.253906,2171.406006 785.348877,2153.478027 784.139587,2135.615234 
	C783.198792,2121.717773 782.767395,2107.785889 782.080566,2092.941895 
	C782.051636,2092.014404 781.841248,2091.706787 782.670288,2091.667236 
	C787.486450,2091.698242 791.473633,2091.768555 795.606689,2092.783203 
	C796.395142,2104.676025 796.777771,2115.646729 797.730713,2126.567871 
	C800.242249,2155.348877 802.380554,2184.181885 805.783997,2212.861816 
	C814.386353,2285.350830 830.395752,2356.296387 852.226929,2425.916748 
	C859.288025,2448.435059 867.187805,2470.690186 873.998291,2493.334229 
	C870.196350,2495.078613 867.100098,2496.554688 864.003906,2498.030762 
z"/>
<path fill="#C22D29" opacity="1.000000" stroke="none" 
	d="
M1124.271729,2918.714111 
	C1127.270142,2915.689941 1130.184448,2913.102051 1134.206543,2910.434082 
	C1145.767456,2920.862793 1156.235229,2931.356445 1166.668701,2941.884277 
	C1175.234497,2950.527588 1183.759277,2959.211670 1192.302246,2967.877686 
	C1189.624146,2970.733398 1186.945923,2973.589111 1183.997314,2977.041992 
	C1183.727051,2977.639160 1182.852051,2977.810303 1182.410645,2977.872559 
	C1180.897827,2975.944092 1180.222290,2973.559326 1178.693970,2972.023193 
	C1161.891479,2955.131104 1144.963257,2938.363770 1128.028198,2921.604248 
	C1127.365723,2920.948730 1126.288086,2920.712646 1124.734375,2920.155518 
	C1124.064941,2920.030029 1124.187744,2919.150391 1124.271729,2918.714111 
z"/>
<path fill="#C22D29" opacity="1.000000" stroke="none" 
	d="
M3241.654785,1603.406006 
	C3237.495850,1605.115967 3233.535645,1606.409424 3228.422119,1607.379883 
	C3221.295166,1592.255127 3215.338867,1577.446411 3209.341309,1562.654297 
	C3205.222168,1552.495850 3201.045654,1542.360474 3196.894775,1532.214722 
	C3200.370605,1530.566162 3203.846191,1528.917603 3207.815918,1526.743652 
	C3208.309570,1526.218140 3209.207031,1526.306030 3209.650391,1526.389038 
	C3213.643799,1536.038452 3217.006348,1545.679565 3220.787842,1555.153809 
	C3226.310547,1568.989868 3232.100342,1582.720215 3237.871582,1596.455688 
	C3238.612305,1598.218628 3239.922363,1599.742554 3241.578857,1601.753418 
	C3242.189209,1602.129517 3241.853516,1602.989380 3241.654785,1603.406006 
z"/>
<path fill="#C22D29" opacity="1.000000" stroke="none" 
	d="
M1609.007568,3227.286133 
	C1607.669312,3230.822754 1606.331055,3234.359375 1604.825562,3238.691895 
	C1604.198120,3239.808594 1603.731567,3240.119873 1602.851807,3240.530518 
	C1597.574707,3238.043457 1592.857422,3235.094238 1587.807861,3232.914795 
	C1568.463501,3224.565918 1549.012329,3216.464111 1528.904053,3208.135742 
	C1529.550049,3204.371826 1530.892700,3200.742432 1533.167725,3196.487793 
	C1547.211914,3201.332031 1560.331787,3206.781738 1573.432861,3212.276123 
	C1585.301758,3217.253662 1597.150146,3222.280762 1609.007568,3227.286133 
z"/>
<path fill="#C22D29" opacity="1.000000" stroke="none" 
	d="
M3228.206543,2493.114014 
	C3231.192871,2494.333496 3234.179443,2495.552979 3237.591797,2497.305908 
	C3236.942871,2502.634033 3236.508301,2507.689453 3234.681152,2512.178223 
	C3227.209961,2530.534424 3219.293457,2548.709229 3211.605225,2566.977783 
	C3210.847900,2568.777344 3210.529297,2570.761475 3209.971191,2573.427490 
	C3209.935303,2574.195068 3209.122559,2574.358398 3208.715576,2574.424316 
	C3204.787354,2572.906250 3201.266357,2571.322510 3197.112793,2568.905518 
	C3201.835205,2555.596191 3207.238525,2543.141113 3212.530273,2530.638672 
	C3217.813721,2518.154785 3222.985596,2505.624023 3228.206543,2493.114014 
z"/>
<path fill="#C22D29" opacity="1.000000" stroke="none" 
	d="
M2494.034180,873.588074 
	C2495.425781,869.728882 2496.817383,865.869690 2498.196533,861.255859 
	C2498.183838,860.501160 2499.013184,860.118225 2499.440430,859.957458 
	C2500.992920,860.971497 2501.900391,862.664185 2503.276367,863.243713 
	C2525.229736,872.489746 2547.237549,881.607666 2569.256104,890.697937 
	C2570.758545,891.318115 2572.447266,891.486511 2574.784668,891.887085 
	C2575.520264,891.909241 2575.692871,892.802124 2575.739746,893.252869 
	C2574.062012,897.103394 2572.337402,900.503174 2569.444824,904.310913 
	C2551.123535,897.622620 2533.955322,890.561707 2516.823486,883.413818 
	C2509.189209,880.228699 2501.628418,876.868713 2494.034180,873.588074 
z"/>
<path fill="#C22D29" opacity="1.000000" stroke="none" 
	d="
M1603.340698,863.975464 
	C1605.588501,866.810608 1607.025635,869.639404 1608.063721,873.606934 
	C1601.551025,877.239746 1595.430664,879.717102 1589.325317,882.230957 
	C1570.408691,890.019958 1551.497681,897.822815 1532.584473,905.620361 
	C1531.173096,902.050354 1529.761841,898.480347 1527.930908,894.306030 
	C1527.511475,893.701721 1527.642822,892.880920 1527.724731,892.473267 
	C1530.649292,891.318298 1533.625732,890.891724 1536.312988,889.771545 
	C1554.281006,882.281738 1572.143677,874.537659 1590.148315,867.138550 
	C1594.050659,865.534851 1598.391357,864.997620 1603.340698,863.975464 
z"/>
<path fill="#C22D29" opacity="1.000000" stroke="none" 
	d="
M874.607483,1608.165161 
	C870.907349,1606.740479 867.207153,1605.315796 862.758423,1603.887695 
	C862.009827,1603.884399 861.659241,1603.143921 861.532349,1602.754395 
	C865.553101,1593.403564 869.868286,1584.515381 873.811096,1575.465088 
	C880.573547,1559.942871 887.103394,1544.319458 894.081421,1528.059082 
	C897.928711,1528.707031 901.425537,1530.034424 905.474365,1532.372559 
	C900.128418,1547.372314 894.218506,1561.356079 888.336182,1575.351562 
	C883.742188,1586.281860 879.182495,1597.226807 874.607483,1608.165161 
z"/>
<path fill="#C22D29" opacity="1.000000" stroke="none" 
	d="
M2498.485840,3240.166992 
	C2496.886230,3236.248047 2495.655029,3232.501221 2494.638672,3227.623291 
	C2509.544189,3220.490967 2524.234863,3214.489258 2538.926025,3208.489014 
	C2549.316162,3204.245361 2559.706787,3200.003418 2570.097168,3195.760742 
	C2571.506104,3199.243408 2572.915283,3202.726074 2574.470215,3206.898682 
	C2552.272705,3216.997070 2529.922607,3226.389404 2507.596680,3235.838379 
	C2505.180176,3236.861084 2502.903564,3238.214111 2500.095703,3239.998535 
	C2499.629395,3240.582520 2498.854004,3240.339111 2498.485840,3240.166992 
z"/>
<path fill="#C22D29" opacity="1.000000" stroke="none" 
	d="
M2968.986328,2909.490723 
	C2971.717041,2912.193115 2974.447510,2914.895752 2977.834473,2917.923584 
	C2978.490723,2918.249023 2978.504639,2918.985352 2978.520996,2919.353516 
	C2975.056152,2922.787354 2971.413818,2925.689697 2968.122070,2928.946533 
	C2954.866211,2942.063721 2941.665039,2955.237549 2928.579102,2968.523682 
	C2926.067871,2971.073242 2924.167969,2974.224609 2921.833984,2977.812500 
	C2921.329590,2978.444336 2920.977539,2978.362793 2920.117676,2978.088379 
	C2916.967773,2974.870361 2914.325684,2971.844971 2911.622070,2967.670898 
	C2930.130615,2947.838867 2948.698486,2929.153076 2967.287354,2910.488281 
	C2967.735596,2910.038086 2968.414795,2909.818115 2968.986328,2909.490723 
z"/>
<path fill="#C22D29" opacity="1.000000" stroke="none" 
	d="
M1183.386719,1123.505249 
	C1186.319702,1126.352173 1188.885254,1129.192017 1191.681641,1133.076660 
	C1173.765747,1152.385742 1155.625977,1170.657104 1137.452393,1188.894775 
	C1136.533813,1189.816650 1135.324585,1190.448975 1134.250732,1191.216187 
	C1131.662598,1188.657349 1129.074463,1186.098633 1126.199463,1182.936035 
	C1128.481812,1179.345581 1130.893921,1176.205200 1133.645752,1173.397827 
	C1149.593750,1157.128906 1165.621582,1140.938232 1181.953613,1124.096191 
	C1182.285034,1123.471191 1183.019409,1123.498169 1183.386719,1123.505249 
z"/>
<path fill="#C22D29" opacity="1.000000" stroke="none" 
	d="
M2910.745605,1133.126221 
	C2913.450439,1130.384277 2916.155273,1127.642334 2919.473633,1124.562988 
	C2931.959473,1135.731201 2943.959961,1147.108521 2955.656982,1158.789917 
	C2962.901855,1166.025269 2969.685547,1173.722290 2977.228760,1181.562012 
	C2975.197510,1184.705444 2972.613770,1187.498901 2968.925049,1190.370850 
	C2957.199707,1179.879883 2946.546631,1169.343262 2935.970459,1158.730225 
	C2927.513672,1150.243896 2919.150391,1141.664307 2910.745605,1133.126221 
z"/>
<path fill="#B62123" opacity="1.000000" stroke="none" 
	d="
M2010.249023,794.071289 
	C2010.307251,790.558472 2010.365356,787.045654 2010.603027,782.672241 
	C2022.662964,781.236389 2034.546143,780.150330 2046.422974,780.216187 
	C2060.961426,780.296692 2075.494873,781.342163 2090.949707,781.948364 
	C2092.030029,785.378113 2092.190674,788.830017 2091.414795,793.290405 
	C2063.735107,794.223022 2036.992065,794.147156 2010.249023,794.071289 
z"/>
<path fill="#B62123" opacity="1.000000" stroke="none" 
	d="
M3320.224854,2090.348145 
	C3316.752930,2091.393066 3313.217285,2091.560791 3308.676025,2090.827393 
	C3307.770020,2063.152344 3307.869873,2036.378540 3307.969482,2009.604492 
	C3311.424316,2009.672119 3314.878906,2009.739746 3319.182373,2009.971191 
	C3320.657715,2024.686890 3321.704834,2039.236450 3321.780518,2053.791260 
	C3321.842285,2065.681396 3320.744629,2077.577637 3320.224854,2090.348145 
z"/>
<path fill="#B62423" opacity="1.000000" stroke="none" 
	d="
M2011.555420,3320.148682 
	C2010.509766,3316.208984 2010.355591,3312.223633 2011.092285,3307.237549 
	C2038.788208,3306.360107 2065.593506,3306.483154 2092.398682,3306.606445 
	C2092.343994,3310.521240 2092.289551,3314.436279 2092.094238,3319.182617 
	C2065.451416,3320.043701 2038.949097,3320.073242 2011.555420,3320.148682 
z"/>
<path fill="#B62423" opacity="1.000000" stroke="none" 
	d="
M795.460815,2091.838867 
	C791.473633,2091.768555 787.486450,2091.698242 782.654175,2091.481689 
	C781.881104,2064.862793 781.953064,2038.389771 782.005615,2010.983154 
	C785.897156,2009.904175 789.808167,2009.758911 794.724854,2010.558838 
	C795.640564,2038.282227 795.550659,2065.060547 795.460815,2091.838867 
z"/>
<path fill="#C22D29" opacity="1.000000" stroke="none" 
	d="
M864.027222,2498.791016 
	C867.100098,2496.554688 870.196350,2495.078613 874.442627,2493.909912 
	C880.717041,2506.749268 885.845215,2519.280273 890.964661,2531.814453 
	C896.076416,2544.329590 901.179321,2556.848633 906.286133,2569.365723 
	C902.682983,2570.804199 899.079834,2572.242432 894.776062,2573.831543 
	C886.091064,2554.749268 878.052795,2535.538330 870.156799,2516.268799 
	C867.908936,2510.783447 866.074524,2505.128418 864.027222,2498.791016 
z"/>
<path fill="#C6B829" opacity="1.000000" stroke="none" 
	d="
M906.767944,2569.890137 
	C901.179321,2556.848633 896.076416,2544.329590 890.964661,2531.814453 
	C885.845215,2519.280273 880.717041,2506.749268 875.148315,2493.641357 
	C867.187805,2470.690186 859.288025,2448.435059 852.226929,2425.916748 
	C830.395752,2356.296387 814.386353,2285.350830 805.783997,2212.861816 
	C802.380554,2184.181885 800.242249,2155.348877 797.730713,2126.567871 
	C796.777771,2115.646729 796.395142,2104.676025 795.606689,2092.783203 
	C795.550659,2065.060547 795.640564,2038.282227 795.560364,2010.550415 
	C796.828552,1988.018188 798.189148,1966.433838 799.721252,1944.861694 
	C803.050049,1897.992920 809.931824,1851.605103 819.002136,1805.532959 
	C831.956360,1739.732178 850.098999,1675.388672 873.588745,1612.562256 
	C873.936768,1611.631348 874.098511,1610.630859 874.477295,1608.914062 
	C879.182495,1597.226807 883.742188,1586.281860 888.336182,1575.351562 
	C894.218506,1561.356079 900.128418,1547.372314 906.125061,1532.632690 
	C915.667358,1512.806641 924.832031,1493.587036 934.601074,1474.679688 
	C987.193909,1372.890259 1052.447632,1279.976807 1130.467285,1196.047852 
	C1131.594849,1194.834961 1132.585083,1193.494385 1133.945068,1191.714844 
	C1135.324585,1190.448975 1136.533813,1189.816650 1137.452393,1188.894775 
	C1155.625977,1170.657104 1173.765747,1152.385742 1192.212891,1133.561523 
	C1206.242554,1120.910400 1219.847534,1108.674683 1233.720825,1096.751465 
	C1322.620361,1020.348145 1420.364502,957.700195 1526.789429,908.581177 
	C1528.298462,907.884766 1529.775635,907.119690 1531.926025,906.003418 
	C1551.497681,897.822815 1570.408691,890.019958 1589.325317,882.230957 
	C1595.430664,879.717102 1601.551025,877.239746 1608.276611,874.274170 
	C1635.416138,865.025391 1661.808838,855.812744 1688.498535,847.559998 
	C1746.776001,829.539917 1806.208374,816.519958 1866.572998,807.728943 
	C1909.387817,801.493713 1952.339600,796.804504 1995.630005,795.648743 
	C1999.943115,795.533569 2004.240967,794.844238 2009.397461,794.246338 
	C2036.992065,794.147156 2063.735107,794.223022 2091.437744,794.154541 
	C2112.295410,795.356079 2132.208496,796.515320 2152.089355,798.082275 
	C2217.841797,803.264587 2282.781494,813.597778 2346.919678,829.018738 
	C2396.478760,840.934387 2445.029785,856.107910 2493.449219,873.615417 
	C2501.628418,876.868713 2509.189209,880.228699 2516.823486,883.413818 
	C2533.955322,890.561707 2551.123535,897.622620 2569.043701,904.920288 
	C2578.174805,909.221619 2586.512451,913.377502 2594.907715,917.413208 
	C2708.924072,972.223633 2812.268555,1042.702393 2905.107666,1128.616211 
	C2906.567139,1129.966553 2908.191406,1131.138306 2910.242188,1132.759766 
	C2919.150391,1141.664307 2927.513672,1150.243896 2935.970459,1158.730225 
	C2946.546631,1169.343262 2957.199707,1179.879883 2968.371826,1190.858643 
	C2982.947266,1207.304565 2997.182129,1223.161865 3010.958496,1239.407593 
	C3084.856201,1326.552979 3145.544678,1422.137329 3193.490967,1525.832275 
	C3194.327393,1527.640747 3195.288574,1529.391479 3196.542969,1531.691895 
	C3201.045654,1542.360474 3205.222168,1552.495850 3209.341309,1562.654297 
	C3215.338867,1577.446411 3221.295166,1592.255127 3227.750244,1607.597168 
	C3237.813721,1637.222412 3248.044189,1666.112793 3256.842529,1695.432861 
	C3275.051270,1756.111938 3288.123779,1817.938232 3296.385742,1880.782349 
	C3301.376465,1918.745483 3305.392822,1956.771362 3306.358398,1995.079590 
	C3306.467285,1999.392578 3307.206543,2003.689941 3307.811523,2008.799561 
	C3307.869873,2036.378540 3307.770020,2063.152344 3307.790039,2090.840088 
	C3306.605957,2111.300781 3305.502441,2130.863525 3303.964355,2150.392090 
	C3297.344971,2234.438477 3282.761963,2317.094727 3259.036133,2397.999268 
	C3249.785645,2429.542725 3238.669434,2460.538818 3228.304688,2492.449219 
	C3222.985596,2505.624023 3217.813721,2518.154785 3212.530273,2530.638672 
	C3207.238525,2543.141113 3201.835205,2555.596191 3196.414307,2568.737305 
	C3180.666016,2600.250488 3165.863770,2631.584961 3149.136719,2661.855957 
	C3100.445068,2749.974854 3041.489502,2830.763672 2972.911377,2904.503418 
	C2971.780518,2905.719238 2970.773926,2907.051025 2969.347656,2908.909668 
	C2968.414795,2909.818115 2967.735596,2910.038086 2967.287354,2910.488281 
	C2948.698486,2929.153076 2930.130615,2947.838867 2911.170898,2967.134766 
	C2897.561768,2979.405273 2884.450439,2991.189453 2871.104492,3002.701416 
	C2780.268555,3081.055664 2680.124512,3144.894531 2570.596191,3195.306152 
	C2559.706787,3200.003418 2549.316162,3204.245361 2538.926025,3208.489014 
	C2524.234863,3214.489258 2509.544189,3220.490967 2494.334473,3226.943604 
	C2472.696045,3234.498047 2451.671875,3241.899658 2430.439941,3248.647705 
	C2364.674805,3269.551514 2297.675049,3285.284424 2229.217285,3294.104736 
	C2195.286621,3298.476318 2161.124023,3301.072998 2127.046875,3304.265137 
	C2116.125977,3305.288330 2105.142822,3305.645020 2093.293457,3306.456543 
	C2065.593506,3306.483154 2038.788208,3306.360107 2011.076050,3306.385742 
	C1988.930420,3305.120850 1967.686157,3303.785400 1946.454102,3302.278809 
	C1899.271484,3298.931885 1852.581787,3291.986328 1806.194092,3282.870117 
	C1740.733032,3270.005615 1676.759155,3251.883301 1614.229248,3228.642090 
	C1612.988647,3228.181152 1611.662476,3227.950195 1609.691895,3227.448975 
	C1597.150146,3222.280762 1585.301758,3217.253662 1573.432861,3212.276123 
	C1560.331787,3206.781738 1547.211914,3201.332031 1533.390381,3195.783691 
	C1522.845581,3190.886719 1513.017700,3186.053711 1503.174194,3181.252930 
	C1390.874268,3126.483154 1288.861450,3056.692383 1197.223877,2971.748291 
	C1196.005127,2970.618896 1194.714355,2969.566895 1192.879639,2968.178223 
	C1183.759277,2959.211670 1175.234497,2950.527588 1166.668701,2941.884277 
	C1156.235229,2931.356445 1145.767456,2920.862793 1134.720947,2910.029297 
	C1120.757202,2894.473633 1107.179688,2879.419189 1094.051025,2863.983154 
	C1019.722961,2776.593750 958.456421,2680.828613 910.271118,2576.704102 
	C909.294434,2574.593506 908.258118,2572.510498 906.767944,2569.890137 
M2519.537842,899.515320 
	C2495.515869,890.594543 2471.760986,880.849487 2447.405762,872.957214 
	C2415.444336,862.600159 2383.275879,852.639221 2350.701904,844.484741 
	C2319.476318,836.667908 2287.695068,830.957947 2256.010254,825.127075 
	C2235.468018,821.346680 2214.711426,818.564819 2193.955322,816.163818 
	C2176.164307,814.105896 2158.249268,813.037781 2140.366943,811.870605 
	C2117.838623,810.400269 2095.295654,808.439026 2072.744385,808.224976 
	C2048.153564,807.991455 2023.539185,806.848145 1998.911133,809.705017 
	C1978.495850,812.073242 1957.817139,812.078430 1937.332764,813.969788 
	C1913.889771,816.134216 1890.378906,818.297424 1867.173950,822.133423 
	C1832.784790,827.818237 1798.466064,834.191162 1764.432007,841.698303 
	C1719.222168,851.670410 1674.999756,865.234497 1631.439575,881.041687 
	C1591.969116,895.364807 1553.196411,911.304688 1515.355957,929.434021 
	C1475.096069,948.722473 1435.613159,969.554688 1398.162354,993.932251 
	C1370.288208,1012.076111 1342.322510,1030.182617 1315.512207,1049.826904 
	C1290.614014,1068.070312 1266.887573,1087.964966 1243.217407,1107.814941 
	C1224.637329,1123.396240 1206.466431,1139.535156 1188.970825,1156.319702 
	C1172.651123,1171.976196 1157.189209,1188.559448 1141.850098,1205.196167 
	C1126.084961,1222.294922 1110.231812,1239.393921 1095.663574,1257.495850 
	C1073.790039,1284.674805 1052.029419,1312.043091 1031.963867,1340.557739 
	C994.175903,1394.257202 960.677734,1450.615234 932.875061,1510.207520 
	C922.038147,1533.435059 910.906372,1556.563354 901.145203,1580.246460 
	C878.536133,1635.102417 859.793762,1691.321655 845.983276,1749.042358 
	C838.564026,1780.051147 832.273621,1811.359131 826.481934,1842.718262 
	C822.690002,1863.249512 820.492371,1884.088623 817.980469,1904.838257 
	C816.226685,1919.325439 814.995361,1933.882202 813.810120,1948.430664 
	C812.382141,1965.957520 810.127014,1983.514038 810.214539,2001.047852 
	C810.422485,2042.648926 807.941223,2084.291992 811.849609,2125.862549 
	C813.154541,2139.742676 812.731323,2153.796631 814.278259,2167.639404 
	C816.966675,2191.697021 819.945740,2215.757324 823.949646,2239.624023 
	C829.222046,2271.052002 834.835083,2302.463379 841.681274,2333.577881 
	C852.710876,2383.704102 868.183350,2432.564697 885.799011,2480.780518 
	C899.639709,2518.664062 915.631409,2555.602051 933.059509,2591.925781 
	C940.835510,2608.131836 949.078552,2624.157471 957.971252,2639.774658 
	C974.105225,2668.108154 990.072144,2696.591797 1007.585266,2724.072021 
	C1033.337036,2764.479736 1061.189209,2803.488281 1092.568359,2839.802246 
	C1112.338135,2862.681152 1131.966309,2885.743408 1152.861206,2907.571533 
	C1174.259277,2929.925049 1196.830566,2951.188477 1219.447021,2972.331543 
	C1235.703491,2987.529053 1252.357056,3002.400635 1269.772705,3016.235107 
	C1291.886475,3033.802490 1314.784546,3050.402100 1337.639893,3067.012207 
	C1382.700928,3099.760742 1430.481201,3128.132324 1479.850708,3153.822998 
	C1496.683228,3162.582275 1513.752563,3170.994385 1531.178711,3178.482666 
	C1564.496094,3192.799072 1597.698608,3207.575195 1631.756348,3219.935547 
	C1695.642578,3243.121338 1761.024780,3261.178955 1828.161743,3272.606201 
	C1860.890015,3278.176758 1893.565186,3283.870850 1926.735474,3286.135254 
	C1934.679443,3286.677490 1942.595825,3287.611084 1950.535034,3288.236328 
	C1967.072266,3289.538574 1983.622192,3291.878174 2000.156006,3291.787598 
	C2042.090820,3291.557373 2084.066895,3294.059570 2125.970459,3290.148926 
	C2139.851562,3288.853516 2153.885498,3289.145996 2167.750732,3287.737793 
	C2188.864746,3285.593018 2209.945068,3282.956543 2230.942383,3279.867432 
	C2252.613525,3276.679199 2274.320801,3273.422363 2295.739502,3268.903564 
	C2331.523438,3261.353760 2367.377441,3253.870850 2402.171387,3242.342529 
	C2436.284180,3231.040039 2470.586914,3220.206787 2504.241211,3207.652344 
	C2545.737793,3192.171875 2585.597900,3172.873535 2625.030762,3152.669189 
	C2660.641846,3134.422852 2694.967041,3114.031494 2728.468750,3092.272461 
	C2774.256104,3062.533691 2818.241211,3030.305420 2859.134521,2994.027588 
	C2878.278320,2977.044434 2897.924561,2960.545410 2916.081055,2942.553711 
	C2938.518555,2920.320068 2960.126221,2897.194092 2981.193848,2873.649658 
	C3000.460205,2852.117920 3019.322021,2830.125977 3036.950195,2807.249023 
	C3067.425781,2767.698975 3095.379639,2726.376953 3120.672607,2683.242676 
	C3142.253418,2646.438721 3162.355957,2608.938721 3180.109131,2570.124756 
	C3203.268799,2519.490479 3223.364014,2467.751953 3239.690430,2414.498291 
	C3253.946777,2367.998047 3265.148438,2320.792236 3273.922607,2273.002441 
	C3277.696289,2252.449707 3280.799805,2231.759521 3283.632080,2211.053223 
	C3285.609131,2196.599121 3286.698975,2182.019775 3288.010498,2167.480469 
	C3288.905273,2157.562256 3289.534424,2147.619873 3290.220215,2137.683838 
	C3291.500000,2119.143555 3293.711670,2100.602783 3293.758545,2082.057861 
	C3293.828125,2054.460938 3294.689209,2026.877197 3292.489990,1999.216064 
	C3290.782471,1977.737793 3290.730957,1956.102539 3288.135986,1934.630981 
	C3285.190674,1910.260986 3283.732178,1885.651978 3279.562500,1861.503418 
	C3273.064697,1823.873169 3265.872070,1786.295044 3257.055908,1749.150024 
	C3246.444336,1704.442627 3232.194092,1660.739380 3216.291504,1617.578369 
	C3193.675781,1556.196533 3165.915527,1497.218628 3133.940918,1440.238281 
	C3112.272217,1401.623901 3088.193359,1364.512451 3062.465576,1328.419800 
	C3032.698486,1286.660156 3000.878662,1246.513184 2965.760498,1209.281372 
	C2925.807861,1166.923828 2884.271484,1126.067261 2838.770264,1089.425903 
	C2806.881348,1063.746094 2774.346924,1038.979614 2740.298584,1016.287720 
	C2693.442383,985.059814 2644.856934,956.748840 2593.791748,932.894104 
	C2569.668457,921.625122 2545.275391,910.933716 2519.537842,899.515320 
z"/>
<path fill="#EBCC26" opacity="1.000000" stroke="none" 
	d="
M2520.271240,899.747925 
	C2545.275391,910.933716 2569.668457,921.625122 2593.791748,932.894104 
	C2644.856934,956.748840 2693.442383,985.059814 2740.298584,1016.287720 
	C2774.346924,1038.979614 2806.881348,1063.746094 2838.770264,1089.425903 
	C2884.271484,1126.067261 2925.807861,1166.923828 2965.760498,1209.281372 
	C3000.878662,1246.513184 3032.698486,1286.660156 3062.465576,1328.419800 
	C3088.193359,1364.512451 3112.272217,1401.623901 3133.940918,1440.238281 
	C3165.915527,1497.218628 3193.675781,1556.196533 3216.291504,1617.578369 
	C3232.194092,1660.739380 3246.444336,1704.442627 3257.055908,1749.150024 
	C3265.872070,1786.295044 3273.064697,1823.873169 3279.562500,1861.503418 
	C3283.732178,1885.651978 3285.190674,1910.260986 3288.135986,1934.630981 
	C3290.730957,1956.102539 3290.782471,1977.737793 3292.489990,1999.216064 
	C3294.689209,2026.877197 3293.828125,2054.460938 3293.758545,2082.057861 
	C3293.711670,2100.602783 3291.500000,2119.143555 3290.220215,2137.683838 
	C3289.534424,2147.619873 3288.905273,2157.562256 3288.010498,2167.480469 
	C3286.698975,2182.019775 3285.609131,2196.599121 3283.632080,2211.053223 
	C3280.799805,2231.759521 3277.696289,2252.449707 3273.922607,2273.002441 
	C3265.148438,2320.792236 3253.946777,2367.998047 3239.690430,2414.498291 
	C3223.364014,2467.751953 3203.268799,2519.490479 3180.109131,2570.124756 
	C3162.355957,2608.938721 3142.253418,2646.438721 3120.672607,2683.242676 
	C3095.379639,2726.376953 3067.425781,2767.698975 3036.950195,2807.249023 
	C3019.322021,2830.125977 3000.460205,2852.117920 2981.193848,2873.649658 
	C2960.126221,2897.194092 2938.518555,2920.320068 2916.081055,2942.553711 
	C2897.924561,2960.545410 2878.278320,2977.044434 2859.134521,2994.027588 
	C2818.241211,3030.305420 2774.256104,3062.533691 2728.468750,3092.272461 
	C2694.967041,3114.031494 2660.641846,3134.422852 2625.030762,3152.669189 
	C2585.597900,3172.873535 2545.737793,3192.171875 2504.241211,3207.652344 
	C2470.586914,3220.206787 2436.284180,3231.040039 2402.171387,3242.342529 
	C2367.377441,3253.870850 2331.523438,3261.353760 2295.739502,3268.903564 
	C2274.320801,3273.422363 2252.613525,3276.679199 2230.942383,3279.867432 
	C2209.945068,3282.956543 2188.864746,3285.593018 2167.750732,3287.737793 
	C2153.885498,3289.145996 2139.851562,3288.853516 2125.970459,3290.148926 
	C2084.066895,3294.059570 2042.090820,3291.557373 2000.156006,3291.787598 
	C1983.622192,3291.878174 1967.072266,3289.538574 1950.535034,3288.236328 
	C1942.595825,3287.611084 1934.679443,3286.677490 1926.735474,3286.135254 
	C1893.565186,3283.870850 1860.890015,3278.176758 1828.161743,3272.606201 
	C1761.024780,3261.178955 1695.642578,3243.121338 1631.756348,3219.935547 
	C1597.698608,3207.575195 1564.496094,3192.799072 1531.178711,3178.482666 
	C1513.752563,3170.994385 1496.683228,3162.582275 1479.850708,3153.822998 
	C1430.481201,3128.132324 1382.700928,3099.760742 1337.639893,3067.012207 
	C1314.784546,3050.402100 1291.886475,3033.802490 1269.772705,3016.235107 
	C1252.357056,3002.400635 1235.703491,2987.529053 1219.447021,2972.331543 
	C1196.830566,2951.188477 1174.259277,2929.925049 1152.861206,2907.571533 
	C1131.966309,2885.743408 1112.338135,2862.681152 1092.568359,2839.802246 
	C1061.189209,2803.488281 1033.337036,2764.479736 1007.585266,2724.072021 
	C990.072144,2696.591797 974.105225,2668.108154 957.971252,2639.774658 
	C949.078552,2624.157471 940.835510,2608.131836 933.059509,2591.925781 
	C915.631409,2555.602051 899.639709,2518.664062 885.799011,2480.780518 
	C868.183350,2432.564697 852.710876,2383.704102 841.681274,2333.577881 
	C834.835083,2302.463379 829.222046,2271.052002 823.949646,2239.624023 
	C819.945740,2215.757324 816.966675,2191.697021 814.278259,2167.639404 
	C812.731323,2153.796631 813.154541,2139.742676 811.849609,2125.862549 
	C807.941223,2084.291992 810.422485,2042.648926 810.214539,2001.047852 
	C810.127014,1983.514038 812.382141,1965.957520 813.810120,1948.430664 
	C814.995361,1933.882202 816.226685,1919.325439 817.980469,1904.838257 
	C820.492371,1884.088623 822.690002,1863.249512 826.481934,1842.718262 
	C832.273621,1811.359131 838.564026,1780.051147 845.983276,1749.042358 
	C859.793762,1691.321655 878.536133,1635.102417 901.145203,1580.246460 
	C910.906372,1556.563354 922.038147,1533.435059 932.875061,1510.207520 
	C960.677734,1450.615234 994.175903,1394.257202 1031.963867,1340.557739 
	C1052.029419,1312.043091 1073.790039,1284.674805 1095.663574,1257.495850 
	C1110.231812,1239.393921 1126.084961,1222.294922 1141.850098,1205.196167 
	C1157.189209,1188.559448 1172.651123,1171.976196 1188.970825,1156.319702 
	C1206.466431,1139.535156 1224.637329,1123.396240 1243.217407,1107.814941 
	C1266.887573,1087.964966 1290.614014,1068.070312 1315.512207,1049.826904 
	C1342.322510,1030.182617 1370.288208,1012.076111 1398.162354,993.932251 
	C1435.613159,969.554688 1475.096069,948.722473 1515.355957,929.434021 
	C1553.196411,911.304688 1591.969116,895.364807 1631.439575,881.041687 
	C1674.999756,865.234497 1719.222168,851.670410 1764.432007,841.698303 
	C1798.466064,834.191162 1832.784790,827.818237 1867.173950,822.133423 
	C1890.378906,818.297424 1913.889771,816.134216 1937.332764,813.969788 
	C1957.817139,812.078430 1978.495850,812.073242 1998.911133,809.705017 
	C2023.539185,806.848145 2048.153564,807.991455 2072.744385,808.224976 
	C2095.295654,808.439026 2117.838623,810.400269 2140.366943,811.870605 
	C2158.249268,813.037781 2176.164307,814.105896 2193.955322,816.163818 
	C2214.711426,818.564819 2235.468018,821.346680 2256.010254,825.127075 
	C2287.695068,830.957947 2319.476318,836.667908 2350.701904,844.484741 
	C2383.275879,852.639221 2415.444336,862.600159 2447.405762,872.957214 
	C2471.760986,880.849487 2495.515869,890.594543 2520.271240,899.747925 
M1505.058716,1778.036865 
	C1490.517334,1822.955078 1482.458008,1869.023071 1479.279175,1916.121338 
	C1476.137085,1962.674194 1479.324585,2008.610718 1489.255859,2054.166260 
	C1502.039307,2112.803467 1523.728882,2168.171875 1550.578979,2221.623047 
	C1591.143066,2302.374512 1641.823120,2376.572021 1698.051392,2447.061768 
	C1796.506226,2570.488037 1908.041870,2681.082764 2028.634644,2782.729980 
	C2035.976196,2788.917969 2043.496094,2794.894775 2051.378906,2801.333984 
	C2055.269531,2798.268799 2058.681641,2795.681152 2061.985840,2792.962646 
	C2137.223633,2731.056396 2208.288574,2664.649902 2275.739746,2594.369629 
	C2349.245605,2517.780273 2417.668213,2436.987549 2477.176025,2348.917969 
	C2524.146240,2279.403076 2564.804199,2206.558838 2592.871582,2127.157471 
	C2608.815674,2082.052490 2620.354736,2035.875244 2623.568115,1988.084595 
	C2627.916504,1923.409546 2621.609375,1859.593994 2603.745361,1797.178833 
	C2578.770752,1709.921021 2534.770752,1634.135620 2465.306152,1574.731812 
	C2384.802002,1505.887451 2291.186523,1473.268921 2185.212891,1478.038574 
	C2150.373779,1479.606689 2120.041016,1493.425537 2094.934082,1518.001953 
	C2078.022461,1534.556519 2065.757812,1554.254517 2056.005371,1575.650757 
	C2054.731445,1578.445557 2053.292480,1581.165283 2052.188477,1583.397217 
	C2042.597778,1567.332520 2034.420776,1551.205200 2024.003540,1536.684937 
	C2001.224609,1504.933838 1970.111084,1485.741821 1931.272095,1479.588867 
	C1906.362183,1475.642700 1881.445190,1476.987427 1856.545044,1479.628784 
	C1788.562012,1486.840454 1726.382812,1509.905884 1670.489136,1549.186523 
	C1589.584473,1606.044312 1536.660767,1683.422363 1505.058716,1778.036865 
z"/>
<path fill="#074F3B" opacity="1.000000" stroke="none" 
	d="
M1505.333374,1777.292480 
	C1536.660767,1683.422363 1589.584473,1606.044312 1670.489136,1549.186523 
	C1726.382812,1509.905884 1788.562012,1486.840454 1856.545044,1479.628784 
	C1881.445190,1476.987427 1906.362183,1475.642700 1931.272095,1479.588867 
	C1970.111084,1485.741821 2001.224609,1504.933838 2024.003540,1536.684937 
	C2034.420776,1551.205200 2042.597778,1567.332520 2052.188477,1583.397217 
	C2053.292480,1581.165283 2054.731445,1578.445557 2056.005371,1575.650757 
	C2065.757812,1554.254517 2078.022461,1534.556519 2094.934082,1518.001953 
	C2120.041016,1493.425537 2150.373779,1479.606689 2185.212891,1478.038574 
	C2291.186523,1473.268921 2384.802002,1505.887451 2465.306152,1574.731812 
	C2534.770752,1634.135620 2578.770752,1709.921021 2603.745361,1797.178833 
	C2621.609375,1859.593994 2627.916504,1923.409546 2623.568115,1988.084595 
	C2620.354736,2035.875244 2608.815674,2082.052490 2592.871582,2127.157471 
	C2564.804199,2206.558838 2524.146240,2279.403076 2477.176025,2348.917969 
	C2417.668213,2436.987549 2349.245605,2517.780273 2275.739746,2594.369629 
	C2208.288574,2664.649902 2137.223633,2731.056396 2061.985840,2792.962646 
	C2058.681641,2795.681152 2055.269531,2798.268799 2051.378906,2801.333984 
	C2043.496094,2794.894775 2035.976196,2788.917969 2028.634644,2782.729980 
	C1908.041870,2681.082764 1796.506226,2570.488037 1698.051392,2447.061768 
	C1641.823120,2376.572021 1591.143066,2302.374512 1550.578979,2221.623047 
	C1523.728882,2168.171875 1502.039307,2112.803467 1489.255859,2054.166260 
	C1479.324585,2008.610718 1476.137085,1962.674194 1479.279175,1916.121338 
	C1482.458008,1869.023071 1490.517334,1822.955078 1505.333374,1777.292480 
M2071.000000,2378.105957 
	C2095.330322,2378.104980 2119.660889,2378.143799 2143.990723,2378.062500 
	C2147.967041,2378.049316 2152.050293,2377.989258 2155.898438,2377.124023 
	C2175.024414,2372.824463 2187.850342,2356.842285 2187.948975,2336.625488 
	C2188.151855,2294.965088 2188.009033,2253.302734 2188.041260,2211.641357 
	C2188.043945,2208.130859 2188.295654,2204.620361 2188.453857,2200.534424 
	C2193.172119,2200.534424 2196.793945,2200.534912 2200.415771,2200.534668 
	C2241.077393,2200.531738 2281.739014,2200.451172 2322.400391,2200.561035 
	C2340.520508,2200.610107 2354.126465,2193.032959 2361.584229,2176.536865 
	C2364.361328,2170.394775 2365.479004,2163.017334 2365.511230,2156.194580 
	C2365.800781,2094.870117 2365.396240,2033.542114 2365.805908,1972.219238 
	C2365.995850,1943.770996 2344.284912,1927.025513 2321.527100,1927.514771 
	C2280.884277,1928.388916 2240.209473,1927.758667 2199.547852,1927.757324 
	C2195.988037,1927.757202 2192.428223,1927.757202 2188.023926,1927.757202 
	C2188.023926,1923.017700 2188.024414,1919.427002 2188.023926,1915.836182 
	C2188.020996,1874.841309 2187.958496,1833.846313 2188.049561,1792.851685 
	C2188.077881,1780.144409 2183.858643,1769.351074 2174.478516,1760.764282 
	C2165.937988,1752.946411 2155.662354,1750.007935 2144.187500,1750.030518 
	C2091.527344,1750.134277 2038.867310,1750.071289 1986.207275,1750.073364 
	C1975.875366,1750.073730 1965.536621,1749.865234 1955.212891,1750.162231 
	C1937.309814,1750.677124 1921.854126,1761.999268 1917.057739,1778.706543 
	C1915.344116,1784.675171 1915.040771,1791.201172 1915.013306,1797.476685 
	C1914.839722,1837.137695 1914.923950,1876.799683 1914.923218,1916.461426 
	C1914.923218,1919.982788 1914.923462,1923.504028 1914.923462,1927.757202 
	C1910.225342,1927.757202 1906.951538,1927.756958 1903.677734,1927.757080 
	C1863.349487,1927.757935 1823.021118,1927.713379 1782.693115,1927.818481 
	C1777.737915,1927.831421 1772.626831,1928.011353 1767.858765,1929.200073 
	C1749.375732,1933.807739 1737.351196,1951.278931 1737.507812,1970.004761 
	C1737.914673,2018.661865 1737.636353,2067.324707 1737.639526,2115.985352 
	C1737.640503,2130.983398 1737.410156,2145.987061 1737.749512,2160.977783 
	C1738.162231,2179.223389 1750.124146,2194.580322 1767.558228,2199.031982 
	C1772.949341,2200.408691 1778.774414,2200.457275 1784.402710,2200.473389 
	C1824.064209,2200.587402 1863.725952,2200.534180 1903.387695,2200.534424 
	C1906.943848,2200.534424 1910.500000,2200.534424 1914.923584,2200.534424 
	C1914.923584,2205.397217 1914.923462,2209.012939 1914.923584,2212.628906 
	C1914.923950,2251.957275 1914.841187,2291.285889 1915.009399,2330.613770 
	C1915.036255,2336.893555 1915.293945,2343.421875 1916.986938,2349.398438 
	C1921.939697,2366.880615 1937.680298,2377.983887 1957.014160,2378.056396 
	C1994.342285,2378.196533 2031.671387,2378.102783 2071.000000,2378.105957 
z"/>
<path fill="#FEFFFE" opacity="1.000000" stroke="none" 
	d="
M2070.000000,2378.105957 
	C2031.671387,2378.102783 1994.342285,2378.196533 1957.014160,2378.056396 
	C1937.680298,2377.983887 1921.939697,2366.880615 1916.986938,2349.398438 
	C1915.293945,2343.421875 1915.036255,2336.893555 1915.009399,2330.613770 
	C1914.841187,2291.285889 1914.923950,2251.957275 1914.923584,2212.628906 
	C1914.923462,2209.012939 1914.923584,2205.397217 1914.923584,2200.534424 
	C1910.500000,2200.534424 1906.943848,2200.534424 1903.387695,2200.534424 
	C1863.725952,2200.534180 1824.064209,2200.587402 1784.402710,2200.473389 
	C1778.774414,2200.457275 1772.949341,2200.408691 1767.558228,2199.031982 
	C1750.124146,2194.580322 1738.162231,2179.223389 1737.749512,2160.977783 
	C1737.410156,2145.987061 1737.640503,2130.983398 1737.639526,2115.985352 
	C1737.636353,2067.324707 1737.914673,2018.661865 1737.507812,1970.004761 
	C1737.351196,1951.278931 1749.375732,1933.807739 1767.858765,1929.200073 
	C1772.626831,1928.011353 1777.737915,1927.831421 1782.693115,1927.818481 
	C1823.021118,1927.713379 1863.349487,1927.757935 1903.677734,1927.757080 
	C1906.951538,1927.756958 1910.225342,1927.757202 1914.923462,1927.757202 
	C1914.923462,1923.504028 1914.923218,1919.982788 1914.923218,1916.461426 
	C1914.923950,1876.799683 1914.839722,1837.137695 1915.013306,1797.476685 
	C1915.040771,1791.201172 1915.344116,1784.675171 1917.057739,1778.706543 
	C1921.854126,1761.999268 1937.309814,1750.677124 1955.212891,1750.162231 
	C1965.536621,1749.865234 1975.875366,1750.073730 1986.207275,1750.073364 
	C2038.867310,1750.071289 2091.527344,1750.134277 2144.187500,1750.030518 
	C2155.662354,1750.007935 2165.937988,1752.946411 2174.478516,1760.764282 
	C2183.858643,1769.351074 2188.077881,1780.144409 2188.049561,1792.851685 
	C2187.958496,1833.846313 2188.020996,1874.841309 2188.023926,1915.836182 
	C2188.024414,1919.427002 2188.023926,1923.017700 2188.023926,1927.757202 
	C2192.428223,1927.757202 2195.988037,1927.757202 2199.547852,1927.757324 
	C2240.209473,1927.758667 2280.884277,1928.388916 2321.527100,1927.514771 
	C2344.284912,1927.025513 2365.995850,1943.770996 2365.805908,1972.219238 
	C2365.396240,2033.542114 2365.800781,2094.870117 2365.511230,2156.194580 
	C2365.479004,2163.017334 2364.361328,2170.394775 2361.584229,2176.536865 
	C2354.126465,2193.032959 2340.520508,2200.610107 2322.400391,2200.561035 
	C2281.739014,2200.451172 2241.077393,2200.531738 2200.415771,2200.534668 
	C2196.793945,2200.534912 2193.172119,2200.534424 2188.453857,2200.534424 
	C2188.295654,2204.620361 2188.043945,2208.130859 2188.041260,2211.641357 
	C2188.009033,2253.302734 2188.151855,2294.965088 2187.948975,2336.625488 
	C2187.850342,2356.842285 2175.024414,2372.824463 2155.898438,2377.124023 
	C2152.050293,2377.989258 2147.967041,2378.049316 2143.990723,2378.062500 
	C2119.660889,2378.143799 2095.330322,2378.104980 2070.000000,2378.105957 
z"/>
</svg>